<?xml version="1.0" encoding="utf-8"?>
<svg width="1920" height="716" viewBox="0 0 1920 716" fill="none" xmlns="http://www.w3.org/2000/svg">
<rect x="887.029" y="188.699" width="13.3186" height="194.452" transform="rotate(-161.364 887.029 188.699)" fill="#F23849"/>
<rect width="3.02842" height="44.2149" transform="matrix(-0.866025 0.5 0.5 0.866025 1533.62 272)" fill="#F23849"/>
<rect x="869" y="576.626" width="5.25279" height="76.6908" transform="rotate(-30 869 576.626)" fill="#F23849"/>
<path d="M1321.5 63C1321.5 31.7959 1346.8 6.5 1378 6.5C1409.2 6.5 1434.5 31.7959 1434.5 63C1434.5 94.2041 1409.2 119.5 1378 119.5C1346.8 119.5 1321.5 94.2041 1321.5 63Z" stroke="#F23849" stroke-width="11"/>
<path d="M1491.09 602.741L1541.91 653.568L1472.48 672.172L1491.09 602.741Z" fill="#F23849"/>
<path d="M689.534 500.193L707.287 469.443L725.041 500.193L689.534 500.193Z" stroke="#F23849" stroke-width="6"/>
<path d="M1240.5 218C1240.5 220.485 1242.51 222.5 1245 222.5C1247.49 222.5 1249.5 220.485 1249.5 218C1249.5 215.515 1247.49 213.5 1245 213.5C1242.51 213.5 1240.5 215.515 1240.5 218Z" fill="#F23849"/>
<path d="M1697.52 534.758L1696.27 532L1656 550.264L1657.25 553.022L1697.52 534.758Z" fill="#F23849"/>
<path d="M1745.74 113.446L1722.9 76.8352L1766.03 75.3571L1745.74 113.446Z" fill="#F23849"/>
<path d="M1843.67 400.278L1819.43 426.23L1809.07 392.268L1843.67 400.278Z" stroke="#F23849" stroke-width="6"/>
<circle r="4.5" transform="matrix(0.974224 0.225581 0.225581 -0.974224 1860.07 653.004)" fill="#F23849"/>
<rect x="262.279" y="404.827" width="5.25279" height="76.6908" transform="rotate(-133.799 262.279 404.827)" fill="#F23849"/>
<circle cx="167.601" cy="576.482" r="75.8984" transform="rotate(76.2009 167.601 576.482)" stroke="#F23849" stroke-width="11"/>
<path d="M473.502 325.414L443.975 324.795L458.202 350.675L473.502 325.414Z" fill="#F23849"/>
<path d="M152.729 295.1L118.632 285.193L144.26 260.618L152.729 295.1Z" stroke="#F23849" stroke-width="6"/>
</svg>
