<?xml version="1.0" encoding="utf-8"?>
<svg width="1920" height="826" viewBox="0 0 1920 826" fill="none" xmlns="http://www.w3.org/2000/svg">
<rect x="887.029" y="258.699" width="13.3186" height="194.452" transform="rotate(-161.364 887.029 258.699)" fill="#F23849"/>
<rect width="3.02842" height="44.2149" transform="matrix(-0.866025 0.5 0.5 0.866025 1453.3 261.991)" fill="#F23849"/>
<rect x="885.893" y="702.027" width="5.25279" height="76.6908" transform="rotate(-30 885.893 702.027)" fill="#F23849"/>
<path d="M1319.5 62C1319.5 30.7959 1344.8 5.5 1376 5.5C1407.2 5.5 1432.5 30.7959 1432.5 62C1432.5 93.2041 1407.2 118.5 1376 118.5C1344.8 118.5 1319.5 93.2041 1319.5 62Z" stroke="#F23849" stroke-width="11"/>
<path d="M1455.55 734.857L1506.37 785.684L1436.94 804.288L1455.55 734.857Z" fill="#F23849"/>
<path d="M689.534 570.193L707.288 539.443L725.041 570.193L689.534 570.193Z" stroke="#F23849" stroke-width="6"/>
<circle r="4.5" transform="matrix(-1 8.74228e-08 8.74228e-08 1 1338.29 252.943)" fill="#F23849"/>
<path d="M1705.82 738.903L1704.57 736.145L1664.3 754.41L1665.55 757.167L1705.82 738.903Z" fill="#F23849"/>
<path d="M1745.74 183.445L1722.9 146.835L1766.03 145.357L1745.74 183.445Z" fill="#F23849"/>
<path d="M1843.67 470.278L1819.43 496.23L1809.07 462.268L1843.67 470.278Z" stroke="#F23849" stroke-width="6"/>
<circle r="4.5" transform="matrix(0.974224 0.225581 0.225581 -0.974224 1860.07 723.004)" fill="#F23849"/>
<rect x="262.279" y="474.827" width="5.25279" height="76.6908" transform="rotate(-133.799 262.279 474.827)" fill="#F23849"/>
<circle cx="167.602" cy="646.482" r="75.8984" transform="rotate(76.2009 167.602 646.482)" stroke="#F23849" stroke-width="11"/>
<path d="M473.502 395.414L443.975 394.795L458.203 420.675L473.502 395.414Z" fill="#F23849"/>
<path d="M152.729 365.1L118.632 355.193L144.26 330.618L152.729 365.1Z" stroke="#F23849" stroke-width="6"/>
</svg>
