<?xml version="1.0" encoding="utf-8"?>
<svg width="1920" height="1343" viewBox="0 0 1920 1343" fill="none" xmlns="http://www.w3.org/2000/svg">
<path d="M1474.51 682.87L1475.92 690.399L1468.69 687.856L1474.51 682.87Z" fill="#F23849"/>
<path d="M575.241 262.586L524.414 211.759L593.845 193.155L575.241 262.586Z" fill="#F23849"/>
<path d="M1341.25 367.25L1323.5 398L1305.75 367.25L1341.25 367.25Z" stroke="#F23849" stroke-width="6"/>
<circle r="4.5" transform="matrix(1 0 0 -1 692.5 684.5)" fill="#F23849"/>
<path d="M8.50865 331.972C16.7936 296.192 52.5155 273.903 88.2957 282.188C124.076 290.472 146.365 326.194 138.08 361.975C129.796 397.755 94.0737 420.044 58.2934 411.759C22.5131 403.474 0.223732 367.753 8.50865 331.972Z" stroke="#F23849" stroke-width="3"/>
<path d="M285.044 753.997L307.888 790.608L264.76 792.086L285.044 753.997Z" fill="#F23849"/>
<path d="M187.122 467.165L211.354 441.212L221.714 475.174L187.122 467.165Z" stroke="#F23849" stroke-width="6"/>
<circle r="4.5" transform="matrix(-0.974224 -0.225582 -0.225582 0.974224 170.719 214.439)" fill="#F23849"/>
<circle cx="1832.46" cy="287.464" r="75.8984" transform="rotate(-103.799 1832.46 287.464)" stroke="#F23849" stroke-width="11"/>
<path d="M1557.29 542.029L1586.81 542.648L1572.59 516.767L1557.29 542.029Z" fill="#F23849"/>
<path d="M1878.06 572.343L1912.16 582.25L1886.53 606.825L1878.06 572.343Z" stroke="#F23849" stroke-width="6"/>
</svg>
