<?xml version="1.0" encoding="utf-8"?>
<svg width="1920" height="826" viewBox="0 0 1920 826" fill="none" xmlns="http://www.w3.org/2000/svg">
<rect x="1431.64" y="691.206" width="13.3186" height="194.452" transform="rotate(111.773 1431.64 691.206)" fill="#FCBD56"/>
<rect x="1144.77" y="123.743" width="5.25279" height="76.6908" transform="rotate(150 1144.77 123.743)" fill="#FCBD56"/>
<path d="M711.167 763.77C711.167 794.974 685.871 820.27 654.667 820.27C623.463 820.27 598.167 794.974 598.167 763.77C598.167 732.565 623.463 707.27 654.667 707.27C685.871 707.27 711.167 732.565 711.167 763.77Z" stroke="#FCBD56" stroke-width="11"/>
<path d="M575.12 90.9129L524.293 40.086L593.724 21.482L575.12 90.9129Z" fill="#F23849"/>
<path d="M1451.13 185.577L1433.38 216.327L1415.63 185.577L1451.13 185.577Z" stroke="#F23849" stroke-width="6"/>
<path d="M324.85 86.866L326.101 89.624L366.367 71.3598L365.116 68.6019L324.85 86.866Z" fill="#F23849"/>
<rect x="39.1582" y="534.598" width="5.25279" height="76.6908" transform="rotate(-55.5345 39.1582 534.598)" fill="#F23849"/>
<circle cx="-8.41356" cy="235.3" r="66.5" transform="rotate(-166.963 -8.41356 235.3)" stroke="#F23849" stroke-width="3"/>
<path d="M284.923 642.324L307.767 678.935L264.639 680.413L284.923 642.324Z" fill="#F23849"/>
<path d="M187 355.491L211.233 329.539L221.592 363.501L187 355.491Z" stroke="#FCBD56" stroke-width="6"/>
<circle r="4.5" transform="matrix(-0.974224 -0.225582 -0.225582 0.974224 170.598 102.766)" fill="#F23849"/>
<rect x="1768.39" y="350.943" width="5.25279" height="76.6908" transform="rotate(46.2009 1768.39 350.943)" fill="#F23849"/>
<circle cx="1863.07" cy="179.287" r="75.8984" transform="rotate(-103.799 1863.07 179.287)" stroke="#F23849" stroke-width="11"/>
<path d="M1537.17 470.356L1566.69 470.975L1552.46 445.094L1537.17 470.356Z" fill="#F23849"/>
<path d="M1877.94 460.67L1912.03 470.577L1886.41 495.152L1877.94 460.67Z" stroke="#FCBD56" stroke-width="6"/>
</svg>
