<?xml version="1.0" encoding="utf-8"?>
<svg width="169" height="169" viewBox="0 0 169 169" fill="none" xmlns="http://www.w3.org/2000/svg">
<circle r="5.41137" transform="matrix(0.707107 -0.707107 -0.707107 -0.707107 7.65283 84.1814)" fill="#DADADA"/>
<circle r="5.41137" transform="matrix(0.707107 -0.707107 -0.707107 -0.707107 22.9585 68.8757)" fill="#C0C0C0"/>
<circle r="5.41137" transform="matrix(0.707107 -0.707107 -0.707107 -0.707107 38.2642 53.5701)" fill="#C0C0C0"/>
<circle r="5.41137" transform="matrix(0.707107 -0.707107 -0.707107 -0.707107 53.5698 38.2644)" fill="#C0C0C0"/>
<circle r="5.41137" transform="matrix(0.707107 -0.707107 -0.707107 -0.707107 68.8755 22.9587)" fill="#C0C0C0"/>
<circle r="5.41137" transform="matrix(0.707107 -0.707107 -0.707107 -0.707107 84.1812 7.65307)" fill="#C0C0C0"/>
<circle r="5.41137" transform="matrix(0.707107 -0.707107 -0.707107 -0.707107 22.9585 99.4871)" fill="#C0C0C0"/>
<circle r="5.41137" transform="matrix(0.707107 -0.707107 -0.707107 -0.707107 38.2642 84.1814)" fill="#C0C0C0"/>
<circle r="5.41137" transform="matrix(0.707107 -0.707107 -0.707107 -0.707107 53.5698 68.8757)" fill="#C0C0C0"/>
<circle r="5.41137" transform="matrix(0.707107 -0.707107 -0.707107 -0.707107 68.8755 53.5701)" fill="#C0C0C0"/>
<circle r="5.41137" transform="matrix(0.707107 -0.707107 -0.707107 -0.707107 84.1812 38.2644)" fill="#C0C0C0"/>
<circle r="5.41137" transform="matrix(0.707107 -0.707107 -0.707107 -0.707107 99.4868 22.9587)" fill="#C0C0C0"/>
<circle r="5.41137" transform="matrix(0.707107 -0.707107 -0.707107 -0.707107 38.2642 114.793)" fill="#C0C0C0"/>
<circle r="5.41137" transform="matrix(0.707107 -0.707107 -0.707107 -0.707107 53.5698 99.4871)" fill="#C0C0C0"/>
<circle r="5.41137" transform="matrix(0.707107 -0.707107 -0.707107 -0.707107 68.8755 84.1814)" fill="#C0C0C0"/>
<circle r="5.41137" transform="matrix(0.707107 -0.707107 -0.707107 -0.707107 84.1812 68.8757)" fill="#C0C0C0"/>
<circle r="5.41137" transform="matrix(0.707107 -0.707107 -0.707107 -0.707107 99.4868 53.5701)" fill="#C0C0C0"/>
<circle r="5.41137" transform="matrix(0.707107 -0.707107 -0.707107 -0.707107 114.792 38.2644)" fill="#C0C0C0"/>
<circle r="5.41137" transform="matrix(0.707107 -0.707107 -0.707107 -0.707107 53.5698 130.098)" fill="#C0C0C0"/>
<circle r="5.41137" transform="matrix(0.707107 -0.707107 -0.707107 -0.707107 68.8755 114.793)" fill="#C0C0C0"/>
<circle r="5.41137" transform="matrix(0.707107 -0.707107 -0.707107 -0.707107 84.1812 99.4871)" fill="#C0C0C0"/>
<circle r="5.41137" transform="matrix(0.707107 -0.707107 -0.707107 -0.707107 99.4868 84.1814)" fill="#C0C0C0"/>
<circle r="5.41137" transform="matrix(0.707107 -0.707107 -0.707107 -0.707107 114.792 68.8757)" fill="#C0C0C0"/>
<circle r="5.41137" transform="matrix(0.707107 -0.707107 -0.707107 -0.707107 130.098 53.5701)" fill="#C0C0C0"/>
<circle r="5.41137" transform="matrix(0.707107 -0.707107 -0.707107 -0.707107 68.8755 145.404)" fill="#C0C0C0"/>
<circle r="5.41137" transform="matrix(0.707107 -0.707107 -0.707107 -0.707107 84.1812 130.098)" fill="#C0C0C0"/>
<circle r="5.41137" transform="matrix(0.707107 -0.707107 -0.707107 -0.707107 99.4868 114.793)" fill="#C0C0C0"/>
<circle r="5.41137" transform="matrix(0.707107 -0.707107 -0.707107 -0.707107 114.792 99.4871)" fill="#C0C0C0"/>
<circle r="5.41137" transform="matrix(0.707107 -0.707107 -0.707107 -0.707107 130.098 84.1814)" fill="#C0C0C0"/>
<circle r="5.41137" transform="matrix(0.707107 -0.707107 -0.707107 -0.707107 145.404 68.8757)" fill="#C0C0C0"/>
<circle r="5.41137" transform="matrix(0.707107 -0.707107 -0.707107 -0.707107 84.1812 160.71)" fill="#C0C0C0"/>
<circle r="5.41137" transform="matrix(0.707107 -0.707107 -0.707107 -0.707107 99.4868 145.404)" fill="#C0C0C0"/>
<circle r="5.41137" transform="matrix(0.707107 -0.707107 -0.707107 -0.707107 114.792 130.098)" fill="#C0C0C0"/>
<circle r="5.41137" transform="matrix(0.707107 -0.707107 -0.707107 -0.707107 130.098 114.793)" fill="#C0C0C0"/>
<circle r="5.41137" transform="matrix(0.707107 -0.707107 -0.707107 -0.707107 145.404 99.4871)" fill="#C0C0C0"/>
<circle r="5.41137" transform="matrix(0.707107 -0.707107 -0.707107 -0.707107 160.71 84.1814)" fill="#C0C0C0"/>
</svg>
