<?xml version="1.0" encoding="utf-8"?>
<svg width="98" height="86" viewBox="0 0 98 86" fill="none" xmlns="http://www.w3.org/2000/svg">
<g filter="url(#filter0_d)">
<path d="M18.797 19.7133C12.4765 16.4796 8.80176 27.6507 8.80176 27.6507C8.80176 27.6507 10.4186 36.911 16.4452 42.9375C18.797 39.4098 25.1175 22.9471 18.797 19.7133Z" fill="#F23849"/>
<path d="M16.7389 12.6579C18.0618 12.6579 19.5316 13.0988 21.0015 13.8338C22.4714 14.5687 24.5292 16.3326 25.5582 19.5663C32.1726 18.3904 38.3461 16.3326 39.522 14.2747C42.0209 9.71809 39.669 5.16145 36.4353 3.39759C33.2016 1.48675 17.3268 2.51566 12.7702 4.42651C8.21354 6.19037 4.39184 13.8338 7.33161 18.5374L7.4786 18.6844C9.53643 15.7446 12.4762 12.6579 16.7389 12.6579Z" fill="#F23849"/>
<path d="M37.1708 22.6531C34.378 23.976 30.5563 24.8579 27.3225 25.4459C27.7635 32.9423 23.3539 43.0845 21.59 45.7303L20.1201 48.0821L22.3249 60.7231L33.2021 59.5472L41.1395 48.0821L37.1708 22.6531Z" fill="#F23849"/>
<path d="M46.5782 49.6989L36.583 63.6628C46.1372 73.364 57.3084 75.1279 57.3084 75.1279C57.3084 75.1279 64.8048 63.9567 66.2746 61.6049C52.3108 57.7832 46.5782 49.6989 46.5782 49.6989Z" fill="#F23849"/>
<path d="M67.4506 10.7471C60.1012 13.5398 49.959 44.5544 49.959 44.5544L50.106 45.1423C50.106 45.1423 61.5711 56.3134 70.0964 57.0484C70.0964 57.0484 92.2916 35.0001 91.9976 28.6796C91.7037 22.3591 74.8 7.95428 67.4506 10.7471Z" fill="#F23849"/>
<path d="M55.8382 18.3904C54.8092 18.2434 47.7538 17.3615 49.0767 32.7953C49.0767 32.6483 50.8406 23.682 55.8382 18.3904Z" fill="#F23849"/>
</g>
<defs>
<filter id="filter0_d" x="0.299805" y="0.379578" width="97.7007" height="84.7483" filterUnits="userSpaceOnUse" color-interpolation-filters="sRGB">
<feFlood flood-opacity="0" result="BackgroundImageFix"/>
<feColorMatrix in="SourceAlpha" type="matrix" values="0 0 0 0 0 0 0 0 0 0 0 0 0 0 0 0 0 0 127 0"/>
<feOffset dy="4"/>
<feGaussianBlur stdDeviation="3"/>
<feColorMatrix type="matrix" values="0 0 0 0 0.94902 0 0 0 0 0.219608 0 0 0 0 0.286275 0 0 0 0.2 0"/>
<feBlend mode="normal" in2="BackgroundImageFix" result="effect1_dropShadow"/>
<feBlend mode="normal" in="SourceGraphic" in2="effect1_dropShadow" result="shape"/>
</filter>
</defs>
</svg>
