<?xml version="1.0" encoding="utf-8"?>
<svg width="1783" height="1305" viewBox="0 0 1783 1305" fill="none" xmlns="http://www.w3.org/2000/svg">
<rect x="1053.76" y="761.744" width="13.3186" height="194.452" transform="rotate(18.6359 1053.76 761.744)" fill="#FCBD56"/>
<g filter="url(#filter0_d)">
<rect x="833.643" y="805" width="7.13077" height="104.109" transform="rotate(75.1708 833.643 805)" fill="#F23849"/>
</g>
<rect width="3.02842" height="44.2149" transform="matrix(0.866025 -0.5 -0.5 -0.866025 577.485 758.452)" fill="#F23849"/>
<rect x="1144.9" y="318.416" width="5.25279" height="76.6908" transform="rotate(150 1144.9 318.416)" fill="#F23849"/>
<rect x="394" y="502" width="4" height="46" transform="rotate(-180 394 502)" fill="#F23849"/>
<path d="M324.971 281.539L326.222 284.297L366.488 266.033L365.237 263.275L324.971 281.539Z" fill="#F23849"/>
<rect x="39.2791" y="729.272" width="5.25279" height="76.6908" transform="rotate(-55.5345 39.2791 729.272)" fill="#F23849"/>
<rect x="1768.51" y="545.616" width="5.25279" height="76.6908" transform="rotate(46.2009 1768.51 545.616)" fill="#F23849"/>
<defs>
<filter id="filter0_d" x="727.001" y="803" width="114.467" height="45.5388" filterUnits="userSpaceOnUse" color-interpolation-filters="sRGB">
<feFlood flood-opacity="0" result="BackgroundImageFix"/>
<feColorMatrix in="SourceAlpha" type="matrix" values="0 0 0 0 0 0 0 0 0 0 0 0 0 0 0 0 0 0 127 0"/>
<feOffset dy="4"/>
<feGaussianBlur stdDeviation="3"/>
<feColorMatrix type="matrix" values="0 0 0 0 0.94902 0 0 0 0 0.219608 0 0 0 0 0.286275 0 0 0 0.3 0"/>
<feBlend mode="normal" in2="BackgroundImageFix" result="effect1_dropShadow"/>
<feBlend mode="normal" in="SourceGraphic" in2="effect1_dropShadow" result="shape"/>
</filter>
</defs>
</svg>
