<?xml version="1.0" encoding="utf-8"?>
<svg width="1578" height="637" viewBox="0 0 1578 637" fill="none" xmlns="http://www.w3.org/2000/svg">
<g filter="url(#filter0_d)">
<path d="M256.346 70.7115C256.225 70.646 256.096 70.5917 255.963 70.5501C255.832 70.5097 255.696 70.4817 255.558 70.4677C255.422 70.4553 255.283 70.4526 255.146 70.4668C254.87 70.4917 254.601 70.5715 254.356 70.7016C254.234 70.7643 254.118 70.8426 254.011 70.9271C253.905 71.0137 253.806 71.1112 253.719 71.2167C253.63 71.3245 253.552 71.4399 253.486 71.5607C253.22 72.0491 253.161 72.6345 253.319 73.1663C253.477 73.6981 253.846 74.1561 254.336 74.4199C254.456 74.4853 254.585 74.5396 254.717 74.5794C254.848 74.6198 254.984 74.6476 255.121 74.6621C255.257 74.6766 255.396 74.6772 255.533 74.6651C255.672 74.6523 255.81 74.6268 255.941 74.5878C256.073 74.5488 256.202 74.495 256.324 74.4303C256.445 74.3655 256.561 74.2893 256.667 74.2027C256.776 74.1156 256.874 74.018 256.962 73.9128C257.051 73.807 257.129 73.6914 257.195 73.5707C257.459 73.083 257.521 72.497 257.363 71.9652C257.205 71.4333 256.833 70.9759 256.346 70.7115Z" fill="#01DE9C"/>
<path d="M277.646 74.8001C277.581 74.6785 277.505 74.5623 277.418 74.4562C277.331 74.3478 277.233 74.2492 277.128 74.1616C277.022 74.072 276.907 73.9941 276.786 73.9287C276.663 73.8639 276.535 73.8096 276.404 73.7693C276.271 73.7295 276.135 73.7017 275.999 73.6871C275.863 73.6727 275.724 73.672 275.587 73.6842C275.31 73.7091 275.041 73.789 274.796 73.919C274.675 73.9837 274.561 74.0594 274.452 74.1466C274.346 74.2332 274.247 74.3307 274.158 74.4364C274.07 74.5417 273.99 74.6579 273.925 74.7785C273.859 74.8992 273.805 75.0275 273.765 75.1603C273.725 75.2911 273.697 75.4271 273.683 75.5654C273.669 75.7018 273.668 75.8405 273.68 75.9777C273.693 76.1149 273.72 76.2521 273.759 76.3835C273.918 76.9173 274.286 77.3733 274.774 77.6377C274.895 77.7031 275.025 77.7568 275.157 77.7992C275.289 77.8389 275.425 77.8668 275.562 77.8813C275.699 77.8932 275.837 77.8964 275.973 77.8823C276.113 77.8695 276.25 77.844 276.382 77.805C276.513 77.766 276.64 77.7128 276.764 77.6475C276.886 77.5848 277.001 77.5065 277.108 77.4219C277.215 77.3353 277.313 77.2378 277.403 77.132C277.49 77.0247 277.568 76.9091 277.635 76.7879C277.899 76.3002 277.962 75.7162 277.803 75.1824C277.764 75.0509 277.71 74.9219 277.646 74.8001Z" fill="#01DE9C"/>
<path d="M320.163 62.0639C320.119 62.024 320.074 61.9847 320.028 61.9459C319.981 61.9061 319.934 61.8672 319.886 61.8285C319.883 61.8264 319.868 61.814 319.865 61.8119C319.798 61.7581 319.73 61.7051 319.663 61.6552C319.605 61.6116 319.547 61.5685 319.488 61.5265C319.413 61.4733 319.335 61.4214 319.261 61.3727C319.181 61.3201 319.1 61.2687 319.018 61.2185C318.926 61.1629 318.834 61.1081 318.744 61.0577C318.686 61.0253 318.626 60.9938 318.567 60.9626L318.541 60.9493C318.474 60.9136 318.405 60.8784 318.34 60.8461C318.273 60.813 318.206 60.7806 318.137 60.7487C318.114 60.7372 318.09 60.726 318.066 60.7148C318.037 60.7011 318.007 60.6884 317.977 60.6762C315.153 59.4226 311.439 59.3493 307.564 59.3846C306.654 59.3928 302.281 58.8338 295.956 57.9461C296.21 57.0219 295.807 56.0117 294.928 55.5354C293.904 54.9805 292.624 55.3607 292.069 56.3848L291.561 57.3216C289.291 56.9958 286.857 56.642 284.304 56.2671C284.753 55.2691 284.364 54.0788 283.387 53.5491C282.363 52.9939 281.083 53.3741 280.527 54.3983L279.868 55.6131C277.515 55.2644 275.092 54.9032 272.633 54.5345L272.979 53.8969C273.534 52.8728 273.154 51.5924 272.13 51.0371C271.105 50.4821 269.825 50.8622 269.27 51.8865L268.196 53.8674C259.476 52.5526 250.564 51.1873 242.908 50.0001C242.211 49.8015 241.497 49.8004 240.828 49.9989C239.704 50.3328 238.788 51.1958 238.377 52.3072C238.369 52.3279 238.362 52.3488 238.355 52.3698C237.214 55.781 237.679 59.4703 239.631 62.4917C240.185 63.3492 240.84 64.1163 241.572 64.7882C240.527 66.106 238.538 68.2412 236.724 68.78C234.858 69.334 232.778 69.5612 230.708 69.4373C228.633 69.3112 227.236 67.5862 225.885 65.918C224.618 64.3543 223.042 62.4079 220.746 63.0899C219.236 63.5383 218.089 64.9957 216.789 68.1202C216.785 68.1303 216.781 68.1406 216.776 68.151C216.722 68.2878 216.669 68.4267 216.618 68.5678C216.52 68.8369 216.428 69.1137 216.342 69.3973C216.338 69.4108 216.333 69.4238 216.329 69.4376C216.322 69.4598 216.316 69.4829 216.31 69.5052C216.227 69.7816 216.15 70.064 216.079 70.3529C216.077 70.3598 216.076 70.3671 216.074 70.374C216.037 70.5235 216.002 70.6741 215.968 70.8267C215.898 71.1461 215.835 71.4722 215.778 71.8049C215.778 71.8053 215.778 71.8058 215.778 71.8063C214.87 77.1121 215.591 84.2941 217.922 93.1533C217.927 93.1699 217.932 93.1863 217.937 93.2027C217.938 93.2076 217.939 93.2125 217.94 93.2171C219.249 97.6224 220.547 101.754 221.496 104.771L222.033 106.481C224.413 114.083 229.085 113.383 234.069 111.903C234.459 111.788 239.778 110.374 246.512 108.585C264.749 103.737 298.695 94.7143 305.412 92.7198C305.412 92.7196 305.412 92.7196 305.413 92.7195C313.443 90.3346 320.248 80.8211 322.192 72.9823C322.193 72.9813 322.193 72.9799 322.193 72.9785C322.234 72.8135 322.272 72.6495 322.306 72.4993L322.315 72.4583C322.351 72.2962 322.384 72.135 322.415 71.9764L322.42 71.9514C322.42 71.9512 322.425 71.9292 322.425 71.9288C322.455 71.7744 322.483 71.6209 322.507 71.474L322.52 71.4024C322.544 71.2559 322.566 71.1105 322.587 70.9639L322.598 70.8824C322.617 70.7433 322.635 70.6049 322.651 70.4565L322.661 70.3709C322.675 70.2364 322.688 70.1027 322.699 69.959L322.704 69.9086C322.892 68.4221 322.774 66.8571 322.371 65.5015C321.787 63.5327 320.786 62.5258 320.163 62.0639ZM293.872 61.9103C299.268 62.671 303.632 63.2496 305.973 63.4861L307.79 69.6048L304.833 69.3048L290.644 67.8661L293.872 61.9103ZM282.171 60.219C284.666 60.5864 287.102 60.9416 289.418 61.2751L286.095 67.4047L278.683 66.6532L282.171 60.219ZM270.495 58.4807C272.893 58.8413 275.321 59.2046 277.728 59.562L274.135 66.1921L266.722 65.4405L270.495 58.4807ZM242.219 54.1626C244.858 54.5717 254.737 56.1003 266.058 57.8118L262.173 64.9792L250.526 63.7982C250.524 63.798 250.522 63.7976 250.521 63.7974L248.736 63.6165C246.449 63.3776 244.423 62.1348 243.175 60.2025C242.009 58.3973 241.67 56.2208 242.219 54.1626ZM220.138 71.5219C220.166 71.4015 220.195 71.2826 220.226 71.1654C220.234 71.1342 220.242 71.1022 220.25 71.0711C220.288 70.9284 220.328 70.7882 220.37 70.6506C220.381 70.6153 220.392 70.5809 220.403 70.546C220.436 70.4393 220.471 70.3338 220.506 70.2302C220.519 70.1913 220.532 70.1524 220.546 70.114C220.592 69.9832 220.64 69.8543 220.689 69.7291C220.69 69.7279 220.69 69.7269 220.69 69.7257C220.978 69.0351 221.224 68.5184 221.428 68.1321C221.43 68.1287 221.432 68.1245 221.434 68.1212C221.475 68.0437 221.514 67.9715 221.552 67.9044C221.627 67.7698 221.696 67.6553 221.757 67.558C222.029 67.8608 222.346 68.2513 222.606 68.5733C224.166 70.4991 226.524 73.4094 230.454 73.6483C233.01 73.8016 235.594 73.5165 237.925 72.8242C238.346 72.6992 238.757 72.5335 239.16 72.3419C241.665 71.1473 243.756 68.8287 244.839 67.4621L247.378 67.7196C245.404 71.9521 241.728 75.1577 237.166 76.5126C230.938 78.3622 224.351 76.4319 220.122 71.5913C220.127 71.5682 220.133 71.5452 220.138 71.5219ZM222.31 92.9771C222.297 92.939 222.283 92.9022 222.27 92.8641C222.236 92.7652 222.203 92.6647 222.17 92.5654C222.108 92.3833 222.045 92.2014 221.986 92.0176C220.43 86.0886 219.636 81.0303 219.612 76.91C221.517 78.4275 223.683 79.6051 226.036 80.3808C230.044 81.7019 234.308 81.7629 238.368 80.5572C244.574 78.7139 249.474 74.1448 251.767 68.1654L297.396 72.7917L308.453 73.9129C308.378 73.9924 308.303 74.0709 308.227 74.1488C308.172 74.2056 308.116 74.264 308.06 74.3204C307.953 74.4294 307.845 74.5355 307.736 74.6412C307.692 74.6845 307.648 74.7291 307.603 74.772C307.296 75.0672 306.986 75.3492 306.674 75.6179C306.625 75.6599 306.576 75.6998 306.527 75.7409C306.42 75.8312 306.313 75.9215 306.206 76.0086C306.145 76.0577 306.085 76.1047 306.024 76.1529C305.928 76.2292 305.832 76.3056 305.735 76.3792C305.669 76.429 305.604 76.477 305.539 76.5257C305.447 76.5942 305.354 76.6623 305.262 76.7284C305.194 76.7771 305.126 76.8243 305.058 76.8717C304.968 76.9343 304.878 76.996 304.787 77.0562C304.718 77.1026 304.648 77.1479 304.579 77.1928C304.49 77.2503 304.4 77.3069 304.311 77.3622C304.241 77.4054 304.171 77.448 304.101 77.4899C304.012 77.5433 303.923 77.5951 303.834 77.646C303.764 77.6859 303.694 77.7253 303.625 77.7635C303.535 77.8129 303.445 77.8603 303.355 77.9072C303.286 77.943 303.218 77.979 303.15 78.0131C303.058 78.0591 302.966 78.1023 302.875 78.1455C302.808 78.177 302.742 78.209 302.676 78.2389C302.58 78.2819 302.485 78.3218 302.39 78.3617C302.328 78.3878 302.266 78.4153 302.204 78.4401C302.099 78.482 301.995 78.5204 301.89 78.5588C301.839 78.5777 301.786 78.5986 301.735 78.6166C301.579 78.6711 301.423 78.7219 301.269 78.7678C297.568 79.867 285.449 83.1395 272.284 86.6612L273.79 83.8833C274.345 82.8592 273.965 81.5788 272.94 81.0235C271.916 80.4684 270.636 80.8486 270.081 81.8729L266.673 88.1607C264.205 88.8194 261.737 89.4773 259.316 90.1225L267.415 75.18C267.97 74.1558 267.59 72.8755 266.566 72.3204C265.541 71.7653 264.261 72.1455 263.706 73.1697L253.708 91.6156C251.132 92.301 248.66 92.9585 246.354 93.5712L253.35 80.6654C253.905 79.6413 253.524 78.3609 252.5 77.8058C251.476 77.2507 250.196 77.6309 249.64 78.6551L240.748 95.0613C233.72 96.9296 230.29 97.8426 229.927 97.9503C229.701 98.0174 229.475 98.0833 229.25 98.1463C227.677 98.588 226.174 98.8976 225.272 98.6087C224.93 98.4995 224.024 98.209 223.117 95.3123C223.117 95.3121 223.117 95.3119 223.117 95.3117C222.957 94.8012 222.765 94.2623 222.562 93.6919C222.479 93.457 222.394 93.2175 222.31 92.9771ZM318.349 70.7653C318.329 70.8846 318.306 71.0043 318.284 71.1203L318.275 71.1654C318.251 71.2912 318.224 71.4178 318.196 71.5449C318.193 71.5574 318.191 71.5699 318.188 71.5825L318.19 71.5718C318.161 71.7058 318.129 71.8405 318.095 71.9756C318.094 71.9799 318.092 71.987 318.091 71.9943C316.462 78.5448 310.499 86.8079 304.211 88.6754C297.553 90.6527 263.644 99.6651 245.428 104.507C237.222 106.688 233.26 107.742 232.869 107.858C231.06 108.395 229.244 108.847 228.213 108.517C227.872 108.407 226.965 108.117 226.058 105.22L225.52 103.505C225.459 103.311 225.396 103.111 225.332 102.907C225.333 102.907 225.334 102.907 225.336 102.907C225.345 102.908 225.354 102.909 225.364 102.909C225.481 102.919 225.599 102.927 225.718 102.931C225.761 102.933 225.804 102.934 225.847 102.935C225.934 102.937 226.021 102.938 226.109 102.938C226.157 102.938 226.206 102.937 226.254 102.936C226.341 102.934 226.428 102.931 226.515 102.927C226.561 102.925 226.606 102.923 226.652 102.92C226.758 102.914 226.864 102.905 226.971 102.896C226.998 102.894 227.024 102.892 227.051 102.889C227.183 102.877 227.316 102.861 227.449 102.844C227.492 102.838 227.534 102.832 227.577 102.826C227.671 102.813 227.765 102.799 227.859 102.784C227.91 102.776 227.962 102.767 228.013 102.759C228.102 102.744 228.19 102.728 228.279 102.711C228.33 102.702 228.38 102.692 228.432 102.682C228.529 102.663 228.627 102.643 228.725 102.622C228.766 102.613 228.807 102.605 228.847 102.596C228.984 102.566 229.122 102.535 229.26 102.502C229.293 102.494 229.327 102.485 229.36 102.477C229.468 102.451 229.576 102.424 229.684 102.397C229.735 102.383 229.786 102.37 229.837 102.357C229.929 102.332 230.022 102.308 230.116 102.282C230.168 102.268 230.221 102.254 230.273 102.239C230.371 102.212 230.468 102.185 230.567 102.157C230.611 102.144 230.656 102.132 230.701 102.119C230.842 102.078 230.984 102.037 231.126 101.995C231.515 101.88 236.829 100.468 243.557 98.6794C261.798 93.8313 295.751 84.8069 302.469 82.8116C302.991 82.6565 303.513 82.4688 304.034 82.2498C307.683 80.7161 311.275 77.6428 314.291 73.4403C314.675 72.9051 314.784 72.2265 314.598 71.6055C314.572 71.5168 314.539 71.4292 314.5 71.3434C314.191 70.657 313.539 70.1879 312.79 70.1119L312.328 70.065L310.412 63.6158C312.712 63.6737 314.851 63.8889 316.312 64.5535C316.324 64.5592 316.337 64.5647 316.349 64.5703C316.388 64.588 316.426 64.6063 316.467 64.627C316.504 64.6451 316.54 64.6641 316.577 64.683L316.607 64.699C316.632 64.7119 316.657 64.7248 316.685 64.7406C316.732 64.7668 316.778 64.7946 316.824 64.8224C316.863 64.8465 316.902 64.8717 316.944 64.8992C316.98 64.923 317.017 64.9466 317.052 64.9714C317.078 64.9897 317.103 65.0086 317.13 65.0294C317.163 65.0541 317.195 65.0793 317.232 65.1092L317.295 65.1604C317.33 65.19 317.364 65.2208 317.399 65.2538C317.502 65.3492 317.592 65.4135 317.657 65.4579C317.661 65.4609 318.049 65.7683 318.327 66.7023C318.567 67.5095 318.634 68.4602 318.518 69.3794C318.508 69.4589 318.503 69.5126 318.501 69.5353L318.494 69.621C318.486 69.72 318.477 69.8196 318.466 69.9169L318.458 69.989C318.446 70.097 318.433 70.2055 318.419 70.3037L318.409 70.3724C318.393 70.4861 318.375 70.6005 318.36 70.6967L318.352 70.7421L320.432 71.0907L318.349 70.7653Z" fill="#01DE9C"/>
</g>
<path d="M1435.15 233.889C1433.75 229.068 1429.99 226.441 1425.49 226.083C1425.21 226.061 1425.21 226.061 1424.94 226.039C1424.73 226.022 1424.73 226.022 1424.51 226.006C1419.76 225.629 1417.61 225.422 1415 225.035C1411.8 224.563 1409.24 224.206 1407.38 223.984C1405.87 223.803 1404.85 223.714 1404.27 223.724C1404.26 223.724 1404.26 223.724 1404.26 223.724C1404.22 223.725 1404.19 223.725 1404.16 223.727C1404.12 223.729 1404.08 223.731 1404.04 223.734C1404.04 223.734 1404.04 223.734 1404.04 223.734C1403.72 223.761 1401.35 223.196 1397.95 222.321L1398.02 222.181C1398.49 221.325 1398.18 220.252 1397.32 219.784C1396.47 219.315 1395.4 219.629 1394.93 220.484L1394.42 221.401C1392.79 220.97 1391.04 220.501 1389.25 220.015L1389.48 219.59C1389.95 218.735 1389.63 217.662 1388.78 217.193C1387.92 216.725 1386.85 217.038 1386.38 217.893L1385.74 219.06C1384.43 218.699 1383.11 218.336 1381.82 217.976L1382.03 217.599C1382.5 216.744 1382.18 215.671 1381.33 215.202C1380.47 214.734 1379.4 215.047 1378.93 215.902L1378.33 216.998C1378.24 216.973 1378.15 216.947 1378.06 216.922C1377.42 216.741 1376.79 216.563 1376.18 216.389C1376.17 216.385 1376.15 216.381 1376.14 216.377C1376.13 216.374 1376.12 216.371 1376.11 216.368C1375.69 216.248 1375.28 216.131 1374.88 216.016C1374.78 215.987 1374.68 215.958 1374.58 215.93C1371.16 214.943 1368.53 214.146 1367.54 213.772C1367.23 213.659 1366.93 213.575 1366.62 213.519C1365.29 213.277 1363.91 213.557 1362.52 214.236C1361.37 214.799 1360.26 215.615 1359.2 216.601C1358.4 217.339 1357.77 218.025 1357.37 218.521C1357.33 218.565 1357.3 218.61 1357.26 218.651C1357.26 218.654 1357.26 218.657 1357.26 218.66C1356.58 219.663 1355.97 220.527 1355.3 221.453C1355.26 221.511 1355.22 221.571 1355.19 221.631C1355.15 221.674 1355.11 221.715 1355.07 221.762C1348.08 231.242 1343.17 233.307 1339.92 231.538C1339.41 231.262 1339.06 230.951 1338.88 230.746C1338.85 230.677 1338.81 230.614 1338.78 230.547C1338.74 230.473 1338.71 230.398 1338.67 230.325C1337.11 227.232 1335.49 225.645 1333.6 225.562C1332.04 225.492 1330.91 226.4 1330.07 227.758C1329.75 228.283 1329.53 228.77 1329.41 229.124C1326.1 241.63 1328.65 251.91 1334.34 259.789C1334.95 260.637 1335.53 261.356 1336.04 261.947C1335.53 262.77 1335.36 263.796 1335.65 264.798L1336.64 268.186C1337.19 270.06 1339.15 271.133 1341.02 270.586L1427.12 245.433C1428.64 245.051 1430.33 244.365 1431.88 243.247C1434.9 241.07 1436.3 237.895 1435.16 233.901C1435.16 233.897 1435.15 233.893 1435.15 233.889ZM1424.24 229.526C1424.45 229.543 1424.45 229.543 1424.66 229.559C1424.93 229.581 1424.93 229.581 1425.21 229.603C1427.77 229.807 1429.88 230.997 1431.1 233.235L1379.43 248.329L1387.75 233.133L1397.29 235.838C1403.17 237.506 1409.29 234.09 1410.96 228.209L1411.01 228.028C1412.08 228.178 1413.24 228.346 1414.48 228.529C1417.2 228.931 1419.4 229.143 1424.24 229.526ZM1370.95 250.805L1381.59 231.385L1384.27 232.144L1374.63 249.73L1370.95 250.805ZM1362.48 253.281L1375.43 229.637L1378.11 230.396L1366.16 252.205L1362.48 253.281L1362.48 253.281ZM1339.92 235.344C1344.29 236.608 1349.61 234.095 1355.77 226.628L1357.53 232.652C1357.8 233.589 1357.27 234.569 1356.33 234.842L1342.77 238.803C1341.84 239.077 1340.86 238.541 1340.58 237.604L1339.92 235.344L1339.92 235.344ZM1360.1 220.749C1360.11 220.741 1360.11 220.733 1360.12 220.725C1360.1 220.755 1360.24 220.591 1360.44 220.366C1360.78 219.981 1361.17 219.583 1361.59 219.196C1362.43 218.422 1363.28 217.799 1364.08 217.407C1364.76 217.074 1365.34 216.934 1365.83 216.976C1366 216.99 1366.15 217.024 1366.29 217.077C1367.41 217.497 1370.09 218.317 1373.55 219.317C1374.5 219.594 1375.52 219.886 1376.58 220.187L1375.33 222.473C1374.86 223.328 1375.18 224.401 1376.03 224.87C1376.89 225.338 1377.96 225.025 1378.43 224.169L1380.07 221.167C1381.36 221.524 1382.67 221.887 1384 222.248L1383.1 223.881C1382.63 224.736 1382.95 225.809 1383.8 226.278C1384.66 226.746 1385.73 226.433 1386.2 225.578L1387.5 223.198C1389.28 223.675 1391.03 224.139 1392.69 224.571L1391.36 226.987C1390.9 227.842 1391.21 228.915 1392.07 229.383C1392.92 229.852 1393.99 229.538 1394.46 228.683L1396.22 225.478C1400.33 226.516 1403.42 227.226 1404.23 227.254C1404.27 227.256 1404.31 227.255 1404.34 227.253C1404.35 227.252 1404.35 227.252 1404.36 227.252C1404.64 227.235 1405.77 227.345 1407.47 227.555C1406.21 231.369 1402.15 233.547 1398.25 232.441L1359.61 221.477C1359.77 221.237 1359.94 220.995 1360.1 220.749ZM1332.78 230.156C1332.79 230.155 1332.91 229.888 1333.08 229.613C1333.31 229.231 1333.49 229.091 1333.45 229.089C1333.67 229.099 1334.2 229.596 1334.92 230.809L1337.19 238.594C1338.01 241.403 1340.95 243.014 1343.76 242.193L1357.32 238.232C1360.13 237.411 1361.74 234.471 1360.92 231.662L1358.96 224.964L1371.95 228.648L1357.69 254.681L1339.14 260.099C1338.49 259.399 1337.85 258.623 1337.2 257.722C1332.1 250.647 1329.81 241.427 1332.78 230.156ZM1429.81 240.383C1428.69 241.197 1427.37 241.728 1426.31 241.998C1426.24 242.016 1340.03 267.196 1340.03 267.196L1339.04 263.808L1339.13 263.782L1432.02 236.645C1431.99 238.182 1431.21 239.376 1429.81 240.383Z" fill="#01CADE"/>
<path d="M1457.67 585.857C1460.1 589.194 1464.01 591.205 1468.13 591.237C1468.13 591.237 1489.4 591.4 1489.4 591.4C1490.9 591.412 1492.33 591.099 1493.78 590.734C1498.77 589.463 1512.99 585.558 1537.09 576.763L1537.12 576.753C1538.02 576.408 1538.48 575.4 1538.15 574.488C1537.81 573.568 1536.8 573.094 1535.88 573.43C1513.3 581.67 1499.49 585.58 1493.84 587.054C1488.36 582.096 1481.04 580.016 1473.77 579.724C1469.99 579.572 1466.18 580.208 1462.65 581.559L1459.83 582.635C1459.69 582.667 1458.98 580.559 1458.97 580.568C1459.01 580.548 1459.05 580.526 1459.09 580.506C1469.71 575.461 1480.85 571.315 1492.48 569.37C1493.45 569.208 1494.1 568.293 1493.94 567.325C1493.78 566.359 1492.86 565.706 1491.9 565.869C1490.47 566.079 1489.05 566.381 1487.64 566.679C1485.96 567.035 1484.28 567.434 1482.58 567.884C1478.03 562.901 1472.07 559.72 1465.18 559.888L1454.69 560.154C1454.96 554.607 1456.66 550.876 1458.11 548.659C1458.55 547.998 1459.42 547.817 1460.11 548.246C1472.76 556.13 1482.88 549.403 1487.79 544.691C1489.51 543.035 1490.39 540.793 1490.34 538.541C1490.37 538.558 1490.39 538.574 1490.42 538.591C1492.11 539.796 1492.94 541.969 1492.49 543.993C1491.83 546.994 1492.81 550.253 1495.06 552.377C1498.05 555.187 1502.82 555.511 1506.18 553.191C1508.06 551.886 1510.15 550.863 1512.4 550.363C1515.92 549.579 1519.66 549.879 1523.23 550.142C1528.53 550.535 1534.55 551.471 1538.61 547.154C1538.62 547.148 1538.62 547.142 1538.63 547.135C1540.87 544.759 1541.78 541.394 1541.88 538.194C1541.88 538.161 1541.88 538.125 1541.88 538.092C1545.47 538.348 1553.1 538.881 1558.07 539.141C1558.03 539.192 1556.97 540.555 1556.97 540.561C1551.36 547.673 1542.43 557.01 1531.71 561.108C1524.57 563.839 1518.12 564.045 1510.66 564.285C1507.04 564.402 1503.3 564.521 1499.08 564.927C1498.11 565.02 1497.39 565.887 1497.48 566.864C1497.58 567.839 1498.45 568.554 1499.42 568.46C1503.52 568.066 1507.21 567.947 1510.78 567.832C1518.56 567.582 1525.28 567.365 1532.98 564.421C1542.86 560.644 1551.1 553.168 1557.8 545.161L1558.28 546.421C1558.76 547.678 1558.68 549.121 1558.05 550.31C1556.83 552.606 1555.21 554.681 1553.46 556.588C1550.62 559.68 1549.7 564.041 1549.82 568.126C1549.82 568.145 1549.82 568.165 1549.82 568.184C1547.41 569.201 1544.94 570.05 1542.5 570.981C1542.49 570.983 1542.49 570.984 1542.49 570.986C1541.58 571.333 1541.12 572.351 1541.46 573.265C1541.8 574.182 1542.82 574.647 1543.74 574.304C1545.77 573.544 1547.84 572.762 1549.89 571.98C1550.74 571.656 1551.58 571.3 1552.4 570.92C1559.26 567.743 1564.28 562.962 1567.32 556.709C1569.78 551.639 1570.26 546.902 1570.33 544.529C1570.36 543.414 1570.18 542.312 1569.77 541.255C1568.52 537.983 1565.45 535.821 1561.94 535.747C1561.94 535.747 1540.23 534.415 1540.22 534.414C1534.33 533.821 1528.7 533.046 1523.46 532.11C1523.48 531.194 1523.27 530.283 1522.82 529.456C1522.13 528.208 1521.01 527.301 1519.64 526.9C1517.07 526.144 1514.26 527.48 1513.23 529.958C1512.15 529.691 1511.09 529.416 1510.07 529.138C1510.21 528.046 1510 526.943 1509.46 525.958C1508.78 524.71 1507.66 523.802 1506.29 523.401C1503.95 522.712 1501.35 523.756 1500.15 525.89C1499.15 525.497 1498.18 525.096 1497.26 524.692C1495.19 523.781 1492.89 523.723 1490.79 524.529C1488.8 525.289 1487.5 526.745 1486.24 528.381C1484.5 530.611 1484.4 533.684 1485.97 536.028C1487.27 537.961 1487 540.528 1485.33 542.133C1480.25 547.016 1472.07 551.518 1461.99 545.236C1459.69 543.801 1456.62 544.465 1455.15 546.715C1453.27 549.575 1451.05 554.545 1451.11 561.987C1451.15 567.37 1452.38 573.287 1454.79 579.574C1455.61 581.725 1456.29 583.98 1457.67 585.857ZM1566.79 544.429C1566.73 546.516 1566.3 550.685 1564.13 555.159C1561.83 559.886 1558.22 563.667 1553.38 566.43C1553.39 566.329 1553.39 566.227 1553.4 566.124C1553.57 563.555 1554.3 560.921 1556.07 558.984C1558.03 556.855 1559.83 554.529 1561.18 551.967C1562.3 549.861 1562.45 547.378 1561.6 545.155L1560.38 541.961C1560.4 541.927 1561.73 540.181 1562.35 539.326C1564.2 539.539 1565.78 540.754 1566.46 542.522C1566.7 543.141 1566.81 543.783 1566.79 544.429ZM1517.51 530.353C1517.87 530.218 1518.26 530.191 1518.64 530.304C1519.1 530.438 1519.48 530.74 1519.7 531.157C1520.05 531.785 1519.88 532.396 1519.69 533.037C1519.69 533.037 1517.54 540.363 1517.54 540.371C1517.27 541.292 1516.26 541.845 1515.33 541.575C1514.39 541.299 1513.85 540.31 1514.13 539.37C1514.13 539.37 1516.44 531.515 1516.44 531.507C1516.6 530.96 1517.01 530.546 1517.51 530.353ZM1504.17 526.866C1504.52 526.727 1504.92 526.695 1505.29 526.805C1506.22 527.078 1506.77 528.078 1506.5 529.01C1506.5 529.01 1504.19 536.872 1504.19 536.872C1503.92 537.788 1502.91 538.349 1501.98 538.076C1501.05 537.803 1500.51 536.798 1500.78 535.871C1500.78 535.871 1503.09 528.009 1503.09 528.008C1503.24 527.477 1503.66 527.064 1504.17 526.866ZM1489.04 530.554C1489.9 529.442 1490.69 528.364 1492.05 527.842C1493.28 527.372 1494.62 527.406 1495.83 527.938C1496.84 528.384 1497.91 528.827 1499.02 529.258C1499.02 529.258 1497.38 534.869 1497.38 534.871C1496.56 537.647 1498.22 540.667 1500.98 541.479C1503.74 542.29 1506.77 540.652 1507.59 537.872L1509.15 532.564C1510.14 532.833 1511.16 533.098 1512.2 533.356C1512.2 533.356 1510.73 538.368 1510.73 538.371C1509.91 541.137 1511.58 544.169 1514.33 544.978C1517.1 545.79 1520.12 544.155 1520.94 541.371L1522.65 535.57C1527.58 536.455 1532.84 537.198 1538.34 537.786C1538.33 538.239 1538.31 538.777 1538.24 539.364C1537.94 541.878 1536.94 544.45 1534.67 545.796C1532.26 547.222 1529.25 546.989 1526.57 546.813C1520.79 546.433 1514.59 545.57 1509.03 547.672C1509 547.683 1508.97 547.693 1508.94 547.704C1508.93 547.706 1508.93 547.709 1508.92 547.713C1506.29 548.719 1503.5 551.526 1500.55 551.2C1500.52 551.196 1500.5 551.193 1500.47 551.19C1497.45 550.82 1495.29 547.752 1495.95 544.779C1496.83 540.837 1494.93 536.816 1491.32 535.002L1488.71 533.69C1488.22 532.678 1488.33 531.465 1489.04 530.554ZM1463.91 584.873C1467.6 583.462 1471.36 583.18 1475.27 583.332C1480.26 583.525 1485.06 584.948 1489.17 587.851L1468.16 587.689C1465.97 587.673 1463.87 586.891 1462.2 585.527L1463.91 584.873ZM1469.46 563.833C1472.97 564.589 1476.25 566.382 1478.75 568.967C1475.83 569.846 1472.84 570.87 1469.82 572.024C1465.86 573.537 1461.97 575.216 1458.14 577.034C1457.99 577.102 1457.85 577.169 1457.7 577.238C1455.96 572.428 1454.96 567.887 1454.71 563.702C1454.71 563.702 1465.27 563.435 1465.27 563.435C1466.68 563.399 1468.09 563.536 1469.46 563.833Z" fill="#01DE9C"/>
<path d="M19.3193 334.522C20.2703 334.804 21.2719 334.255 21.5564 333.295C21.841 332.335 21.3008 331.328 20.3498 331.046C19.3988 330.764 18.3972 331.314 18.1127 332.274C17.8281 333.233 18.3683 334.24 19.3193 334.522Z" fill="#01CADE"/>
<path d="M15.5361 340.963C16.4871 341.245 17.4886 340.696 17.7732 339.736C18.0578 338.776 17.5176 337.77 16.5666 337.488C15.6156 337.206 14.614 337.755 14.3295 338.715C14.0449 339.675 14.5851 340.681 15.5361 340.963Z" fill="#01CADE"/>
<path d="M106.831 363.494C105.381 358.905 98.4924 354.972 86.1635 351.694L54.8112 323.492C54.0533 322.889 53.0893 322.981 52.3667 323.523C51.7646 324.29 35.247 338.299 18.1906 320.008C17.7255 319.681 17.2089 319.528 16.6409 319.548C16.0728 319.569 15.5737 319.988 15.247 320.458C11.6022 327.697 5.42986 339.668 4.50103 340.905C4.17432 341.376 4.01974 341.897 4.03728 342.47C4.27866 342.919 4.69223 343.42 5.20881 343.573C10.0994 345.401 35.706 355.073 59.9854 362.272C80.4766 368.348 100.175 372.675 105.578 368.984C105.801 368.861 106.025 368.738 106.077 368.564C106.352 368.268 107.659 366.387 106.831 363.494ZM8.59861 340.986C10.6963 337.07 15.0976 328.544 17.2469 324.454C31.4248 337.922 46.3991 332.909 53.454 327.438L83.9276 354.813C84.2206 355.089 84.3927 355.14 84.7372 355.242C99.8726 359.162 102.785 363.24 103.285 364.712C103.647 365.386 103.493 365.908 103.39 366.255C94.7675 370.694 41.7994 353.477 8.59861 340.986Z" fill="#01CADE"/>
<path d="M107.713 369.995L107.176 365.487C107.038 364.69 106.452 364.138 105.763 363.934C104.73 363.628 103.835 364.118 103.526 365.161C103.423 365.509 103.32 365.856 103.44 366.081L103.908 370.19C104.03 372.306 102.844 374.412 100.985 374.996C97.2669 376.162 88.3846 377.688 71.1652 372.582C47.4024 365.537 12.6192 355.224 4.52605 352.824L7.61772 342.397C7.92689 341.354 7.44427 340.455 6.41111 340.148C5.37794 339.842 4.48288 340.333 4.17371 341.376L0.566785 353.541C0.412202 354.062 0.481251 354.461 0.722692 354.91C0.964132 355.36 1.25682 355.636 1.7734 355.789C1.7734 355.789 43.1 368.042 70.4274 376.334C87.6467 381.439 97.3386 380.343 102.347 378.613C105.721 377.345 108.06 373.879 107.713 369.995Z" fill="#01CADE"/>
<path d="M85.9399 351.817C85.1304 351.388 84.0634 351.828 83.6334 352.646L77.8056 364.72C77.8056 364.72 77.7541 364.893 77.7025 365.067C77.3934 366.11 77.876 367.009 78.9091 367.316C79.7702 367.571 80.665 367.08 81.0948 366.262L86.7505 354.137C87.1805 353.319 86.7494 352.246 85.9399 351.817Z" fill="#01CADE"/>
<path d="M61.9572 326.556C61.2508 325.779 60.1145 325.82 59.5127 326.587L51.7704 333.745C50.9962 334.461 50.8591 335.555 51.5656 336.331C51.6862 336.556 52.0307 336.658 52.3751 336.76C52.8917 336.913 53.6835 336.77 54.1825 336.351L61.9248 329.193C62.5266 328.426 62.6637 327.332 61.9572 326.556Z" fill="#01CADE"/>
<path d="M67.8142 332.074C67.1077 331.297 65.9715 331.338 65.3696 332.105L57.6274 339.263C56.8531 339.979 56.7161 341.073 57.4225 341.849C57.5432 342.074 57.8876 342.176 58.2321 342.278C58.7487 342.432 59.5404 342.288 60.0395 341.869L67.7817 334.711C68.3836 333.944 68.5206 332.85 67.8142 332.074Z" fill="#01CADE"/>
<path d="M73.6721 337.592C72.9656 336.815 71.8294 336.857 71.2275 337.623L63.4853 344.781C62.711 345.497 62.574 346.591 63.2804 347.367C63.4011 347.592 63.7455 347.694 64.09 347.796C64.6066 347.95 65.3983 347.806 65.8974 347.387L73.6396 340.229C74.2415 339.462 74.3783 338.368 73.6721 337.592Z" fill="#01CADE"/>
<path d="M79.529 343.11C78.8225 342.333 77.6863 342.374 77.0844 343.141L69.3422 350.299C68.568 351.015 68.4309 352.109 69.1374 352.885C69.258 353.11 69.6024 353.212 69.9469 353.314C70.4635 353.467 71.2553 353.324 71.7543 352.905L79.4965 345.747C80.0984 344.98 80.2354 343.886 79.529 343.11Z" fill="#01CADE"/>
<path d="M17.5529 319.629C16.2268 319.047 14.9862 317.545 15.553 315.633C15.8622 314.59 15.3796 313.691 14.3464 313.385C13.3132 313.078 12.4184 313.569 12.1093 314.612C11.1302 317.914 12.7681 321.236 15.8336 322.901C16.0057 322.952 16.0057 322.952 16.178 323.003C17.0391 323.258 17.9339 322.767 18.3122 322.123C18.7935 321.132 18.3623 320.059 17.5529 319.629Z" fill="#01CADE"/>
<path d="M82.2529 348.455C81.4949 347.852 80.3587 347.893 79.7567 348.66L77.4516 351.38C73.994 355.46 67.9862 356.136 63.9553 352.672L36.8074 329.876C36.0495 329.273 34.9132 329.314 34.3113 330.081C33.7094 330.848 33.7445 331.993 34.5025 332.596L61.6504 355.392C62.9941 356.547 64.6129 357.405 66.3349 357.915C71.1563 359.345 76.63 357.943 80.1391 353.689L82.4442 350.97C83.0459 350.203 83.0106 349.058 82.2529 348.455Z" fill="#01CADE"/>
<path d="M306.155 567.898C306.016 567.731 292.305 551.053 289.71 546.557C287.609 542.138 285.776 537.596 284.221 532.956C283.084 529.541 281.752 526.194 280.232 522.932C279.92 522.395 279.39 522.022 278.78 521.908C277.086 521.586 275.019 523.148 269.289 527.703C266.288 530.183 263.159 532.505 259.915 534.659C257.323 535.964 254.544 536.857 251.676 537.306C246.976 538.33 241.654 539.492 242.614 544.001C243.73 549.241 242.276 578.593 238.142 584.852C233.941 591.214 229.659 593.685 220.277 599.1C208.445 605.929 209.8 616.367 209.863 616.808C209.896 616.99 209.959 617.165 210.048 617.328C210.067 617.367 210.064 617.413 210.086 617.451L216.384 628.364C217.467 630.246 219.573 631.294 221.728 631.023C221.848 631.008 221.966 630.981 222.081 630.942L231.969 627.595C236.722 625.987 241.354 624.037 245.827 621.763L312.863 583.073C313.724 582.576 314.019 581.476 313.522 580.615L306.324 568.143C306.298 568.097 306.255 568.072 306.225 568.03C306.196 567.988 306.188 567.938 306.155 567.898ZM234.145 594.558C236.545 592.66 238.654 590.42 240.406 587.911L244.096 588.9C245.052 589.147 246.028 588.578 246.284 587.624C246.54 586.67 245.979 585.688 245.028 585.424L242.23 584.673C242.572 583.815 242.87 582.94 243.124 582.051L246.973 583.083C247.929 583.33 248.906 582.76 249.162 581.807C249.418 580.853 248.857 579.871 247.905 579.606L243.986 578.556C244.155 577.768 244.315 576.953 244.467 576.111L247.904 577.032C248.525 577.198 249.187 577.021 249.642 576.566C250.097 576.112 250.275 575.449 250.108 574.828C249.942 574.207 249.457 573.722 248.836 573.555L245.041 572.537C245.146 571.807 245.245 571.067 245.34 570.319L248.49 571.163C249.45 571.421 250.437 570.851 250.694 569.891C250.952 568.931 250.382 567.944 249.422 567.686L245.749 566.702C245.817 566.034 245.88 565.366 245.94 564.698L249.044 565.53C250.004 565.787 250.991 565.218 251.249 564.258C251.506 563.297 250.936 562.31 249.976 562.053L246.225 561.047C246.277 560.274 246.323 559.509 246.364 558.753L249.33 559.548C250.29 559.805 251.277 559.236 251.535 558.276C251.792 557.316 251.222 556.329 250.262 556.071L246.525 555.069C246.546 554.403 246.564 553.747 246.576 553.111L249.526 553.902C250.486 554.16 251.473 553.59 251.731 552.63C251.988 551.67 251.419 550.683 250.458 550.425L246.588 549.388C246.61 547.333 246.458 545.28 246.135 543.251C245.92 542.246 249.846 541.389 252.442 540.823C255.714 540.303 258.88 539.254 261.815 537.716C265.178 535.491 268.421 533.089 271.53 530.52C273.677 528.813 276.243 526.773 277.671 525.882C278.481 527.739 279.676 531.008 280.84 534.192C282.453 539.031 284.374 543.763 286.592 548.357C288.859 552.284 298.446 564.149 302.03 568.543L243.065 602.574C241.745 603.335 238.535 605.054 235.632 606.492C235.971 604.933 236.086 603.334 235.974 601.742C235.724 599.27 235.108 596.849 234.145 594.558ZM222.077 602.217C225.695 600.129 228.632 598.434 231.138 596.752C231.785 598.458 232.205 600.241 232.387 602.057C232.473 604.237 232.122 606.413 231.356 608.456C231.064 608.575 230.765 608.676 230.461 608.758L213.462 614.094C213.789 611.21 215.37 606.088 222.077 602.217ZM309.505 580.855L306.387 582.655L305.487 581.096C304.991 580.235 305.286 579.135 306.146 578.637L307.705 577.737L309.504 580.855L309.505 580.855ZM305.906 574.619L304.347 575.519C301.766 577.012 300.882 580.312 302.369 582.895L303.269 584.454L244.027 618.645C239.806 620.767 235.447 622.603 230.979 624.137L221.132 627.463C220.464 627.49 219.835 627.144 219.502 626.564L214.326 617.596L231.413 612.228C232.082 612.043 232.737 611.807 233.371 611.524C233.462 611.504 233.552 611.477 233.639 611.443C233.67 611.425 233.693 611.395 233.722 611.376C237.654 609.669 244.093 606.137 244.865 605.692L304.106 571.501L305.906 574.619Z" fill="#01DE9C"/>
<path d="M276.401 566.708C283.289 562.733 285.65 553.926 281.675 547.038C277.699 540.15 268.893 537.789 262.005 541.764C255.117 545.74 252.755 554.546 256.731 561.434C260.712 568.315 269.512 570.674 276.401 566.708ZM263.804 544.883C268.97 541.901 275.575 543.672 278.557 548.838C281.538 554.004 279.767 560.609 274.601 563.59C269.435 566.572 262.83 564.801 259.849 559.635C256.874 554.468 258.644 547.868 263.804 544.883Z" fill="#01DE9C"/>
<path d="M272.802 560.472C276.245 558.485 277.426 554.082 275.438 550.638C273.451 547.194 269.048 546.013 265.604 548.001C262.16 549.988 260.979 554.392 262.967 557.836C264.957 561.276 269.357 562.455 272.802 560.472ZM267.403 551.118C269.125 550.125 271.327 550.715 272.321 552.437C273.314 554.159 272.724 556.361 271.002 557.355C269.28 558.348 267.078 557.758 266.085 556.036C265.093 554.314 265.683 552.113 267.403 551.118Z" fill="#01DE9C"/>
<path d="M241.328 613.968C241.825 614.829 242.926 615.124 243.787 614.627L296.792 584.035C297.653 583.538 297.948 582.438 297.452 581.577C296.955 580.716 295.854 580.421 294.993 580.918L241.987 611.509C241.126 612.006 240.831 613.107 241.328 613.968Z" fill="#01DE9C"/>
<path d="M277.314 575.782C277.223 575.703 277.121 575.636 277.012 575.583C276.908 575.534 276.8 575.492 276.691 575.457C275.733 575.241 274.769 575.797 274.477 576.735C274.459 576.848 274.442 576.962 274.424 577.076C274.415 577.197 274.423 577.319 274.445 577.438C274.452 577.558 274.478 577.677 274.524 577.788C274.562 577.897 274.608 578.002 274.663 578.102C274.907 578.512 275.297 578.814 275.754 578.948C275.985 578.998 276.223 579.009 276.457 578.979C276.931 578.928 277.361 578.679 277.642 578.295C277.79 578.11 277.9 577.898 277.968 577.671C278.08 577.208 278.013 576.719 277.781 576.303C277.721 576.205 277.654 576.112 277.579 576.025C277.505 575.93 277.415 575.848 277.314 575.782Z" fill="#01DE9C"/>
<path d="M283.831 571.336C283.614 572.127 283.957 572.965 284.666 573.376C285.375 573.788 286.273 573.671 286.852 573.091C287.432 572.511 287.548 571.613 287.135 570.904C286.894 570.493 286.503 570.19 286.044 570.058C285.086 569.842 284.123 570.398 283.831 571.336Z" fill="#01DE9C"/>
<g filter="url(#filter1_d)">
<path d="M1118.85 555.045L1124.44 538.019L1126.93 531.196C1127.9 528.553 1127.16 525.586 1125.06 523.706L1115.65 515.222L1108.7 506.929C1106.62 504.434 1102.98 503.92 1100.29 505.74L1094.1 509.907C1093.85 510.068 1093.63 510.26 1093.43 510.479L1088.62 515.66C1088.52 515.78 1088.4 515.886 1088.27 515.974L1086.36 517.26C1085.97 517.31 1085.61 517.487 1085.33 517.765C1085.23 517.875 1085.15 517.997 1085.07 518.126L1082.8 519.652C1082.61 519.775 1082.39 519.858 1082.16 519.896C1081.53 519.617 1080.81 519.683 1080.24 520.07C1080.19 520.102 1080.15 520.156 1080.1 520.194L1076.23 520.698C1075.58 520.308 1074.77 520.285 1074.1 520.638C1073.94 520.718 1073.79 520.81 1073.65 520.915L1071.56 520.808C1071.1 520.227 1070.39 519.916 1069.65 519.981C1069.03 520.036 1068.43 520.26 1067.93 520.627L1063.68 520.398C1063.23 519.818 1062.51 519.507 1061.78 519.571C1061.15 519.627 1060.56 519.85 1060.05 520.217L1056.06 520.013C1055.53 519.525 1054.75 519.421 1054.11 519.75C1047.27 518.005 1041.5 516.492 1035.62 514.639C1035.24 514.52 1034.86 514.39 1034.48 514.257C1033.19 513.759 1031.85 513.415 1030.48 513.232C1025.42 512.731 1020.66 517.009 1018.18 521.472C1016.54 523.752 1016.68 526.858 1018.51 528.982C1022 533.825 1026.54 537.817 1031.79 540.659L1099.92 579.195C1102.03 580.392 1104.63 580.292 1106.63 578.934C1106.88 578.759 1107.13 578.57 1107.37 578.369C1107.69 578.213 1107.96 577.963 1108.13 577.651L1114.16 566.984C1114.65 566.185 1115.07 565.343 1115.41 564.47L1118.85 555.045ZM1025.16 518.536C1025.23 518.662 1025.32 518.78 1025.42 518.883C1029.9 523.041 1042.02 530.166 1046.37 532.682C1046.39 532.695 1046.4 532.707 1046.41 532.718L1046.77 532.921L1047.94 533.586C1048 533.613 1048.06 533.636 1048.12 533.655C1069.29 544.989 1081.33 539.569 1083.19 538.579C1084.26 539.701 1085.5 540.644 1086.87 541.374C1092.39 544.495 1102.36 547.276 1116.86 549.788L1115.9 552.72C1112.96 552.264 1110.06 551.551 1107.25 550.587C1104.67 549.676 1102.01 549.028 1099.31 548.653C1095.08 548.439 1088.72 556.074 1086.23 559.292L1073.84 552.286C1028.55 526.672 1023.35 521.979 1022.99 521.628C1022.86 521.481 1022.71 521.355 1022.54 521.258C1023.3 520.244 1024.18 519.329 1025.16 518.536ZM1120.81 537.774L1119.98 540.315C1119.89 540.311 1119.8 540.313 1119.71 540.324C1119.13 540.457 1116.26 540.103 1109.58 537.811C1109.16 537.666 1108.81 537.366 1108.6 536.971L1100.23 521.251C1100 520.817 1099.96 520.307 1100.12 519.843C1100.28 519.379 1100.63 519.003 1101.08 518.806L1103.19 517.881C1103.92 517.561 1104.78 517.772 1105.28 518.395L1120.81 537.774ZM1099.12 552.193C1101.53 552.571 1103.91 553.165 1106.22 553.97C1108.99 554.889 1111.82 555.611 1114.7 556.131L1112.09 563.261C1111.82 563.951 1111.48 564.616 1111.09 565.248L1107.62 571.389L1089.34 561.049C1092.85 556.609 1097.48 552.101 1099.12 552.193ZM1090.24 518.904C1090.61 518.655 1090.95 518.357 1091.25 518.018L1096.06 512.838L1102.26 508.667C1103.45 507.857 1105.07 508.085 1105.99 509.195L1112.95 517.499C1113.05 517.621 1113.17 517.736 1113.29 517.843L1122.7 526.326C1123.72 527.242 1124.08 528.689 1123.62 529.979L1122.2 533.858L1108.04 516.187C1106.54 514.324 1103.98 513.693 1101.79 514.648L1099.67 515.572C1098.32 516.162 1097.28 517.287 1096.8 518.678C1096.31 520.068 1096.43 521.597 1097.12 522.897L1105.49 538.619C1106.12 539.802 1107.17 540.703 1108.44 541.136C1111.78 542.436 1115.27 543.339 1118.82 543.828L1117.97 546.402C1088.01 541.26 1085.4 536.179 1085.19 535.196C1085.02 534.421 1085.9 533.738 1086.29 533.481C1086.81 533.129 1087.11 532.526 1087.07 531.897C1087.03 531.267 1086.65 530.708 1086.09 530.43C1085.52 530.151 1084.85 530.196 1084.32 530.546C1082.61 531.541 1081.58 533.41 1081.67 535.394C1081.66 535.408 1081.64 535.402 1081.62 535.412C1081.51 535.477 1070.89 541.568 1050.49 530.909C1050.7 529.069 1053.03 525.84 1055.21 523.494L1057.96 523.627C1057.74 524.499 1057.61 525.391 1057.57 526.289C1057.54 526.96 1057.89 527.592 1058.47 527.919C1059 528.219 1059.65 528.222 1060.19 527.928C1060.72 527.633 1061.07 527.084 1061.1 526.473C1061.12 525.565 1061.29 524.666 1061.61 523.818L1065.83 524.047C1065.61 524.918 1065.48 525.81 1065.44 526.708C1065.41 527.378 1065.76 528.011 1066.34 528.338C1066.87 528.638 1067.52 528.641 1068.06 528.347C1068.59 528.052 1068.94 527.502 1068.97 526.892C1068.99 525.983 1069.16 525.085 1069.48 524.236L1072.05 524.367C1072.04 525.77 1072.29 527.163 1072.8 528.47C1073.13 529.388 1074.14 529.867 1075.05 529.539C1075.97 529.211 1076.45 528.202 1076.12 527.284C1075.74 526.353 1075.55 525.351 1075.58 524.344L1078.52 523.952C1078.51 525.473 1078.92 526.967 1079.7 528.269C1080 528.839 1080.59 529.202 1081.23 529.215C1081.87 529.228 1082.47 528.89 1082.79 528.333C1083.12 527.775 1083.11 527.087 1082.77 526.537C1082.17 525.645 1081.93 524.551 1082.12 523.488L1082.5 523.439C1083.17 523.34 1083.82 523.113 1084.41 522.77C1084.67 523.994 1085.23 525.135 1086.05 526.086C1086.45 526.581 1087.08 526.822 1087.71 526.717C1088.34 526.611 1088.86 526.176 1089.08 525.578C1089.29 524.978 1089.17 524.31 1088.76 523.827C1087.93 522.927 1087.61 521.675 1087.89 520.487L1090.24 518.904ZM1033.33 517.594C1033.74 517.736 1034.15 517.877 1034.56 518.004C1039.94 519.699 1045.19 521.101 1051.24 522.657C1049.54 524.559 1048.21 526.759 1047.31 529.146C1040.77 525.472 1034.48 521.374 1028.48 516.877C1029.02 516.743 1029.58 516.695 1030.13 516.737C1031.23 516.902 1032.3 517.189 1033.33 517.594ZM1104.66 575.999C1103.77 576.611 1102.6 576.659 1101.66 576.124L1033.52 537.588C1028.77 535.026 1024.65 531.427 1021.47 527.059C1020.59 525.718 1020.39 525.161 1020.71 524.306C1023.73 527.016 1038.47 536.333 1072.11 555.356L1105.88 574.459L1105.29 575.511L1105.22 575.563C1105.04 575.718 1104.86 575.864 1104.66 575.999Z" fill="#01CADE"/>
</g>
<path d="M1246.12 83.6345C1246.08 83.5223 1246.03 83.412 1245.99 83.3027C1245.97 83.2612 1245.95 83.2207 1245.93 83.1794C1245.9 83.1131 1245.87 83.0468 1245.83 82.9814C1245.81 82.9324 1245.78 82.8844 1245.76 82.8364C1245.73 82.7806 1245.7 82.725 1245.67 82.6701C1245.64 82.6195 1245.61 82.5698 1245.58 82.5201C1245.55 82.4687 1245.52 82.4177 1245.48 82.3673C1245.45 82.318 1245.42 82.2693 1245.39 82.2209C1245.36 82.1706 1245.32 82.1208 1245.29 82.0712C1245.26 82.0257 1245.22 81.9809 1245.19 81.9362C1245.15 81.8834 1245.11 81.8314 1245.07 81.7798C1245.04 81.7413 1245.01 81.7027 1244.98 81.665C1244.93 81.6055 1244.88 81.5472 1244.83 81.4891C1244.81 81.4612 1244.79 81.433 1244.76 81.4054C1244.7 81.3331 1244.63 81.2626 1244.57 81.1929C1244.55 81.181 1244.54 81.169 1244.53 81.1573C1243.97 80.5818 1243.32 80.096 1242.59 79.725C1242.04 79.4464 1241.47 79.2417 1240.88 79.1074C1240.87 79.1054 1240.86 79.103 1240.85 79.101C1240.76 79.0803 1240.67 79.0618 1240.58 79.0448C1240.55 79.0392 1240.52 79.0333 1240.49 79.0277C1238.9 77.5474 1232.56 71.7762 1217.05 59.3203C1216.78 59.0423 1215.63 57.8023 1214.14 55.7528L1215.94 54.4064C1216.69 53.8441 1216.85 52.7782 1216.28 52.0259C1215.72 51.2731 1214.66 51.119 1213.9 51.6814L1212.24 52.9252C1211.68 52.0217 1211.11 51.0307 1210.54 49.9609L1212.33 49.2531C1213.21 48.9078 1213.64 47.9195 1213.29 47.0458C1212.94 46.1725 1211.96 45.7442 1211.08 46.0898L1209.07 46.8875C1208.57 45.7623 1208.11 44.5723 1207.69 43.3217L1209.44 42.9279C1210.36 42.7218 1210.93 41.8124 1210.73 40.8958C1210.52 39.9788 1209.61 39.4028 1208.7 39.6086L1206.72 40.0517C1206.46 38.9985 1206.23 37.9108 1206.04 36.7908L1208.05 36.7429C1208.99 36.7205 1209.74 35.9409 1209.71 35.0019C1209.69 34.0627 1208.91 33.3195 1207.97 33.3422L1205.63 33.3981C1205.38 30.1311 1205.52 26.6352 1206.23 22.9554C1206.25 22.8712 1206.26 22.7858 1206.26 22.7C1206.28 22.3675 1206.32 19.4172 1203.91 18.1899C1201.54 16.979 1198.22 18.1295 1193.49 21.8099C1191.86 21.8519 1186.55 21.7886 1183.47 19.4182C1183.43 19.3918 1183.4 19.3666 1183.36 19.3401C1183.29 19.2798 1183.22 19.2145 1183.14 19.151C1183.08 19.0986 1183.02 19.0471 1182.96 18.9931C1182.9 18.9369 1182.85 18.8765 1182.79 18.8181C1182.73 18.7536 1182.66 18.6902 1182.6 18.6238C1182.55 18.5639 1182.5 18.5004 1182.45 18.4385C1182.39 18.3701 1182.33 18.3027 1182.28 18.2323C1182.23 18.158 1182.18 18.0795 1182.13 18.0021C1182.08 17.9404 1182.04 17.8805 1182 17.8174C1181.92 17.6753 1181.83 17.5286 1181.76 17.3764C1181.65 17.1379 1181.53 16.9061 1181.41 16.6773C1181.39 16.6268 1181.36 16.5766 1181.34 16.5264C1181.1 16.055 1180.85 15.6049 1180.61 15.1757C1180.6 15.1623 1180.59 15.1489 1180.59 15.1356C1178.17 10.8992 1175.65 8.73999 1173.07 8.71351C1171.1 8.69327 1169.37 9.88925 1167.93 12.2681C1167.9 12.31 1167.88 12.3554 1167.85 12.3983C1167.78 12.5137 1167.71 12.6287 1167.65 12.7493C1167.55 12.9193 1167.46 13.0958 1167.36 13.2794C1167.31 13.3745 1167.26 13.4743 1167.21 13.5747C1167.19 13.6143 1167.17 13.6542 1167.15 13.6949C1167.12 13.7491 1167.09 13.8051 1167.06 13.8608C1166.82 14.3172 1166.53 14.8362 1166.2 15.4141C1166.2 15.4162 1166.2 15.4181 1166.2 15.4202C1161.53 23.6168 1149.95 40.9026 1148.19 43.5138C1148.18 43.5286 1148.17 43.544 1148.16 43.5579C1148.15 43.5829 1148.13 43.6042 1148.12 43.6261C1148.1 43.6528 1148.08 43.677 1148.07 43.699C1148.06 43.7092 1148.06 43.7189 1148.05 43.7283C1148.03 43.7512 1148.02 43.7706 1148.01 43.7868C1147.99 43.819 1147.97 43.8421 1147.97 43.8478C1147.97 43.8516 1147.96 43.8557 1147.96 43.8598C1147.94 43.8896 1147.92 43.921 1147.91 43.9526C1147.89 43.9736 1147.88 43.9939 1147.87 44.0151C1147.87 44.019 1147.87 44.0227 1147.86 44.0266L1145.28 49.1011C1143.43 52.7349 1144.88 57.1972 1148.51 59.0484L1178.86 74.5133C1179.7 74.9398 1180.73 74.607 1181.15 73.7699C1181.58 72.9328 1181.25 71.9089 1180.41 71.4824L1150.05 56.0175C1148.09 55.0177 1147.31 52.6078 1148.31 50.6453L1150.12 47.0862L1162.77 53.5314L1195.32 70.1155C1195.33 70.1168 1195.33 70.1184 1195.33 70.1196C1195.33 70.1207 1195.33 70.1212 1195.34 70.1222L1203.41 74.2362C1203.46 74.2602 1203.51 74.2851 1203.55 74.3118C1203.56 74.3136 1203.74 74.4161 1204.08 74.5978C1200.92 75.2837 1198.2 76.9364 1196.08 79.4647L1185.6 74.1246C1184.76 73.6981 1183.73 74.0308 1183.31 74.868C1182.88 75.7051 1183.21 76.729 1184.05 77.1555L1195.79 83.1352L1198.12 84.3242C1198.16 84.345 1198.21 84.3701 1198.26 84.3988C1198.62 84.5995 1199.34 84.985 1200.33 85.4905C1203.19 86.9457 1207.69 89.0749 1212.94 90.9537C1224.95 95.2552 1234.69 96.0138 1241.91 93.2083C1245.71 91.73 1247.6 87.4357 1246.12 83.6345ZM1236.04 79.5945C1236.01 79.6064 1235.97 79.6188 1235.93 79.6304C1235.88 79.6452 1235.83 79.6594 1235.78 79.6734C1235.71 79.6932 1235.63 79.7115 1235.56 79.7294C1235.51 79.7419 1235.46 79.7547 1235.41 79.7667C1235.33 79.7847 1235.25 79.8014 1235.17 79.818C1235.12 79.8277 1235.07 79.8382 1235.02 79.8478C1234.93 79.866 1234.83 79.882 1234.73 79.898C1234.7 79.904 1234.66 79.9111 1234.62 79.9169C1234.48 79.938 1234.35 79.957 1234.2 79.9741C1234.18 79.9767 1234.16 79.9785 1234.14 79.981C1234.02 79.9949 1233.9 80.0077 1233.77 80.0189C1233.72 80.0234 1233.67 80.0267 1233.62 80.0305C1233.52 80.0382 1233.43 80.0459 1233.33 80.0515C1233.27 80.0551 1233.21 80.0575 1233.15 80.0605C1233.05 80.065 1232.96 80.0695 1232.86 80.0726C1232.8 80.0745 1232.73 80.076 1232.67 80.0774C1232.58 80.0795 1232.48 80.0812 1232.39 80.082C1232.32 80.0823 1232.25 80.0824 1232.18 80.0823C1232.09 80.082 1231.99 80.0813 1231.89 80.0797C1231.83 80.0784 1231.76 80.0771 1231.69 80.0753C1231.59 80.0727 1231.49 80.0692 1231.39 80.0653C1231.32 80.0627 1231.25 80.0598 1231.18 80.0563C1231.07 80.0512 1230.97 80.045 1230.86 80.0386C1230.79 80.0344 1230.72 80.0304 1230.65 80.0257C1230.54 80.0179 1230.43 80.0085 1230.31 79.9988C1230.25 79.9936 1230.18 79.9889 1230.12 79.9833C1229.98 79.9713 1229.84 79.9572 1229.71 79.9428C1229.66 79.9381 1229.62 79.9344 1229.57 79.9295C1229.39 79.9093 1229.2 79.8874 1229.01 79.8633C1228.98 79.86 1228.96 79.856 1228.93 79.8526C1228.77 79.8317 1228.6 79.8096 1228.44 79.7859C1228.38 79.7769 1228.31 79.7667 1228.25 79.7572C1228.12 79.7377 1227.99 79.718 1227.85 79.6968C1227.78 79.6849 1227.7 79.6718 1227.63 79.6594C1227.51 79.6389 1227.38 79.6182 1227.26 79.5963C1227.18 79.5822 1227.1 79.5672 1227.01 79.5521C1226.89 79.5299 1226.77 79.507 1226.65 79.4837C1226.56 79.4678 1226.48 79.4511 1226.4 79.4348C1226.28 79.4103 1226.15 79.3853 1226.03 79.3595C1225.94 79.3419 1225.86 79.3239 1225.77 79.3058C1225.65 79.2789 1225.52 79.2512 1225.39 79.2233C1225.31 79.2044 1225.22 79.1857 1225.14 79.1666C1225 79.1365 1224.87 79.1052 1224.74 79.0736C1224.66 79.0545 1224.57 79.0355 1224.49 79.0157C1224.35 78.981 1224.2 78.945 1224.06 78.9086C1223.99 78.8905 1223.91 78.8725 1223.84 78.8539C1223.66 78.8086 1223.48 78.7618 1223.3 78.7141C1223.26 78.7029 1223.22 78.6922 1223.18 78.6808C1222.95 78.6206 1222.73 78.5585 1222.5 78.4946C1222.46 78.4829 1222.41 78.4701 1222.37 78.4584C1222.32 78.4439 1222.27 78.4287 1222.22 78.4138C1222.08 78.3758 1221.95 78.3381 1221.82 78.2985C1221.74 78.2759 1221.66 78.2522 1221.58 78.2288C1221.43 78.1835 1221.28 78.1384 1221.13 78.0915C1221.04 78.0637 1220.95 78.0355 1220.85 78.0072C1220.71 77.9628 1220.57 77.9184 1220.43 77.8728C1220.33 77.8422 1220.23 77.8111 1220.14 77.78C1220 77.735 1219.86 77.6895 1219.72 77.6436C1219.62 77.6105 1219.52 77.5772 1219.42 77.5434C1219.35 77.5205 1219.28 77.497 1219.21 77.4736C1219.24 77.3857 1219.27 77.297 1219.31 77.209C1219.34 77.1138 1219.38 77.0185 1219.41 76.9223C1220.8 73.0195 1220.43 68.9743 1219.65 65.7911C1228.23 72.7717 1233.35 77.1936 1236.04 79.5945ZM1202.37 21.2209C1202.71 21.3912 1202.85 22.0739 1202.86 22.4671C1202.12 26.3616 1201.98 30.0522 1202.23 33.4789L1199.83 33.5363C1198.89 33.5588 1198.15 34.3383 1198.17 35.2773C1198.19 35.9246 1198.56 36.4785 1199.1 36.7532C1199.34 36.877 1199.62 36.9441 1199.91 36.9372L1202.61 36.8728C1202.82 38.2338 1203.09 39.5422 1203.4 40.7975L1200.75 41.3923C1199.83 41.5982 1199.26 42.5078 1199.46 43.4242C1199.58 43.9384 1199.92 44.3458 1200.35 44.5678C1200.69 44.7414 1201.09 44.8018 1201.5 44.7113L1204.34 44.0729C1204.82 45.5286 1205.34 46.8905 1205.88 48.1463L1203.51 49.0853C1202.64 49.4306 1202.21 50.4189 1202.55 51.2926C1202.71 51.6935 1203.01 52.0006 1203.36 52.1822C1203.78 52.396 1204.29 52.4356 1204.76 52.2486L1207.35 51.2265C1208.06 52.5999 1208.78 53.8532 1209.49 54.9784L1207.38 56.5574C1206.63 57.1197 1206.47 58.1856 1207.04 58.9379C1207.2 59.1537 1207.4 59.3204 1207.63 59.4351C1208.18 59.72 1208.88 59.6835 1209.42 59.2823L1211.4 57.7973C1212.87 59.8123 1214.06 61.1104 1214.51 61.587C1214.97 62.4926 1216.85 66.5171 1216.93 71.0054C1216.88 70.9786 1216.84 70.9527 1216.79 70.9256C1216.63 70.8356 1216.48 70.7437 1216.33 70.6521C1216.14 70.538 1215.94 70.424 1215.75 70.3081C1215.6 70.2143 1215.45 70.1187 1215.3 70.0238C1215.11 69.9069 1214.93 69.7902 1214.74 69.6714C1214.59 69.574 1214.45 69.475 1214.3 69.3764C1214.12 69.2569 1213.94 69.1371 1213.76 69.0153C1213.61 68.9144 1213.47 68.8121 1213.32 68.7099C1213.15 68.5872 1212.97 68.4643 1212.8 68.3397C1212.65 68.2355 1212.51 68.13 1212.37 68.0247C1212.2 67.8989 1212.03 67.7729 1211.86 67.6451C1211.72 67.5375 1211.58 67.4286 1211.44 67.3198C1211.28 67.1912 1211.11 67.0618 1210.95 66.9311C1210.81 66.8204 1210.68 66.7084 1210.54 66.5964C1210.38 66.4642 1210.22 66.3317 1210.07 66.1977C1209.93 66.0839 1209.8 65.9692 1209.67 65.8539C1209.51 65.7186 1209.36 65.5827 1209.21 65.4456C1209.07 65.3285 1208.95 65.2106 1208.82 65.092C1208.67 64.9536 1208.52 64.8145 1208.37 64.6743C1208.24 64.5544 1208.12 64.4335 1207.99 64.3121C1207.85 64.1703 1207.7 64.0277 1207.56 63.8839C1207.44 63.7607 1207.31 63.637 1207.19 63.5123C1207.05 63.3673 1206.91 63.2217 1206.77 63.0751C1206.65 62.9488 1206.54 62.8219 1206.42 62.6941C1206.28 62.5461 1206.15 62.3969 1206.01 62.247C1205.9 62.1175 1205.78 61.9875 1205.67 61.8569C1205.54 61.7057 1205.41 61.5534 1205.28 61.4003C1205.17 61.2678 1205.06 61.1346 1204.95 61.0006C1204.82 60.846 1204.69 60.6905 1204.57 60.5342C1204.46 60.3988 1204.35 60.2631 1204.25 60.1263C1204.12 59.9685 1204 59.8093 1203.88 59.6495C1203.78 59.511 1203.68 59.3726 1203.57 59.2327C1203.46 59.0716 1203.34 58.9092 1203.23 58.7465C1203.12 58.605 1203.02 58.4635 1202.93 58.3206C1202.81 58.1563 1202.7 57.9902 1202.59 57.8244C1202.49 57.6802 1202.4 57.5359 1202.3 57.3903C1202.2 57.2224 1202.09 57.0529 1201.98 56.883C1201.89 56.736 1201.8 56.5894 1201.71 56.4411C1201.6 56.2695 1201.5 56.0961 1201.4 55.9229C1201.31 55.7734 1201.22 55.6242 1201.14 55.4735C1201.04 55.2986 1200.94 55.1219 1200.84 54.9456C1200.76 54.793 1200.67 54.6406 1200.59 54.4868C1200.49 54.309 1200.4 54.1291 1200.31 53.9494C1200.23 53.7939 1200.15 53.6391 1200.07 53.4821C1199.98 53.3003 1199.89 53.1165 1199.8 52.9329C1199.73 52.7751 1199.65 52.6181 1199.58 52.459C1199.49 52.2727 1199.4 52.0843 1199.32 51.8962C1199.25 51.7369 1199.18 51.5783 1199.11 51.4178C1199.02 51.2272 1198.94 51.0346 1198.86 50.8424C1198.8 50.6812 1198.73 50.5204 1198.66 50.3577C1198.58 50.163 1198.51 49.9657 1198.43 49.769C1198.37 49.6058 1198.31 49.4438 1198.24 49.2796C1198.17 49.0794 1198.1 48.8766 1198.03 48.6746C1197.97 48.5107 1197.91 48.3481 1197.85 48.1832C1197.78 47.9769 1197.72 47.7676 1197.65 47.5593C1197.59 47.3957 1197.54 47.2331 1197.49 47.0684C1197.42 46.8544 1197.36 46.6377 1197.29 46.4214C1197.24 46.2591 1197.19 46.0986 1197.15 45.9353C1197.08 45.7069 1197.02 45.4755 1196.96 45.2451C1196.91 45.0917 1196.87 44.9396 1196.83 44.7852C1196.76 44.5238 1196.7 44.2593 1196.64 43.9952C1196.6 43.8687 1196.57 43.7437 1196.54 43.6169C1196.45 43.2242 1196.36 42.8285 1196.28 42.4298C1196.22 42.1346 1196.16 41.8414 1196.1 41.5498C1196.08 41.4529 1196.07 41.3569 1196.05 41.2604C1196.01 41.0653 1195.98 40.8704 1195.95 40.6764C1195.93 40.5648 1195.91 40.454 1195.89 40.343C1195.86 40.1643 1195.83 39.9863 1195.8 39.8091C1195.79 39.6961 1195.77 39.5834 1195.75 39.4708C1195.73 39.2926 1195.7 39.1157 1195.68 38.9391C1195.66 38.8335 1195.65 38.7274 1195.64 38.6225C1195.61 38.4224 1195.58 38.224 1195.56 38.0262C1195.55 37.9489 1195.54 37.8702 1195.53 37.7929C1195.5 37.5221 1195.47 37.2535 1195.45 36.9873C1195.44 36.9112 1195.43 36.8366 1195.43 36.7606C1195.41 36.5681 1195.39 36.3761 1195.37 36.1861C1195.37 36.0839 1195.36 35.9835 1195.35 35.8821C1195.34 35.7197 1195.33 35.5579 1195.31 35.3977C1195.31 35.2922 1195.3 35.1871 1195.29 35.0825C1195.28 34.9265 1195.28 34.772 1195.27 34.6182C1195.26 34.5171 1195.26 34.4158 1195.25 34.3156C1195.24 34.1546 1195.24 33.9956 1195.23 33.8373C1195.23 33.7493 1195.22 33.6601 1195.22 33.5728C1195.21 33.3599 1195.2 33.1498 1195.2 32.9423C1195.2 32.909 1195.2 32.8754 1195.2 32.8422C1195.19 32.6113 1195.19 32.384 1195.19 32.1596C1195.19 32.0782 1195.19 31.9989 1195.18 31.9183C1195.18 31.7697 1195.18 31.6221 1195.18 31.4766C1195.18 31.3875 1195.18 31.2998 1195.19 31.2118C1195.19 31.0771 1195.19 30.9433 1195.19 30.8114C1195.19 30.7246 1195.19 30.6385 1195.19 30.5527C1195.2 30.4196 1195.2 30.2886 1195.2 30.1586C1195.2 30.0803 1195.21 30.0016 1195.21 29.9244C1195.21 29.7771 1195.22 29.6325 1195.22 29.4896C1195.23 29.4351 1195.23 29.3791 1195.23 29.3253C1195.24 29.1305 1195.25 28.9398 1195.26 28.7535C1195.26 28.7081 1195.26 28.6648 1195.26 28.6199C1195.27 28.4781 1195.28 28.3378 1195.29 28.2012C1195.29 28.1384 1195.3 28.0776 1195.3 28.0158C1195.31 27.9003 1195.32 27.786 1195.33 27.6744C1195.33 27.6115 1195.33 27.5497 1195.34 27.4879C1195.35 27.3799 1195.36 27.2738 1195.37 27.17C1195.37 27.1135 1195.37 27.0567 1195.38 27.0012C1195.39 26.8901 1195.4 26.782 1195.41 26.676C1195.41 26.6343 1195.42 26.5913 1195.42 26.5502C1195.45 26.255 1195.48 25.9807 1195.51 25.7294C1195.51 25.7025 1195.51 25.6776 1195.52 25.6514C1195.53 25.5542 1195.54 25.4594 1195.55 25.3693C1195.55 25.3372 1195.56 25.3065 1195.56 25.2753C1195.57 25.1926 1195.58 25.1124 1195.59 25.0364C1195.6 25.0102 1195.6 24.9839 1195.6 24.9583C1195.61 24.8788 1195.63 24.803 1195.64 24.7315C1195.64 24.7147 1195.64 24.6968 1195.64 24.6802C1195.66 24.5846 1195.67 24.4971 1195.68 24.4167C1200.68 20.5497 1202.21 21.1381 1202.37 21.2209ZM1151.86 44.1532C1153.81 41.248 1158.04 34.8827 1162.06 28.6131C1162.82 29.6527 1163.74 31.198 1164.41 33.2181C1166.04 38.1785 1165.49 43.7196 1162.77 49.7101L1151.86 44.1532ZM1165.8 51.2547C1167.29 48.0039 1168.12 45.0322 1168.49 42.3479C1170.09 43.2631 1171.8 43.8678 1173.61 44.1487C1173.89 44.1922 1174.17 44.2345 1174.45 44.277C1180.11 45.1346 1185.01 45.8756 1187.94 55.6407C1188.81 58.5515 1190.07 61.6093 1191.49 64.3413L1165.8 51.2549L1165.8 51.2547ZM1205.23 71.3488C1205.14 71.2983 1205.05 71.2507 1204.96 71.2045L1197.24 67.2715C1194.91 64.0987 1192.56 59.2038 1191.2 54.6632C1187.65 42.8353 1180.91 41.8147 1174.96 40.9136C1174.68 40.872 1174.41 40.8302 1174.13 40.7873C1172.19 40.4845 1170.36 39.6866 1168.71 38.4182C1168.55 31.8723 1165.65 27.531 1163.99 25.5828C1165.28 23.5488 1166.49 21.589 1167.55 19.8317C1169.45 23.2165 1173.25 28.62 1179.4 31.8069C1179.41 31.8087 1179.41 31.8102 1179.41 31.812C1180.25 32.236 1181.27 31.9092 1181.7 31.0781C1182.13 30.2439 1181.8 29.2176 1180.97 28.7857C1174.24 25.3015 1170.62 18.5518 1169.58 16.3469C1169.59 16.3284 1169.6 16.3114 1169.61 16.2932C1169.66 16.1933 1169.72 16.0951 1169.77 15.9984C1169.79 15.9593 1169.81 15.9205 1169.83 15.8821C1169.88 15.7969 1169.93 15.7133 1169.97 15.6308C1169.99 15.5876 1170.02 15.5438 1170.04 15.5017C1170.08 15.4215 1170.12 15.3436 1170.17 15.2662C1170.19 15.2281 1170.21 15.1886 1170.23 15.1513C1170.28 15.0391 1170.34 14.9295 1170.39 14.8237C1171 13.633 1171.63 12.8089 1172.22 12.4035C1172.59 12.1578 1172.91 12.1017 1173.18 12.1262C1173.84 12.2125 1174.81 12.8548 1175.95 14.2954C1176.02 14.3797 1176.08 14.4649 1176.15 14.5534C1176.18 14.597 1176.22 14.643 1176.25 14.6879C1176.33 14.7901 1176.4 14.8938 1176.48 15.0011C1176.49 15.0166 1176.5 15.0315 1176.51 15.0471C1177.12 15.924 1177.75 16.9753 1178.36 18.1691C1178.38 18.2076 1178.4 18.2459 1178.42 18.2847C1178.51 18.4726 1178.61 18.6632 1178.7 18.8579C1178.77 19.0069 1178.85 19.1524 1178.93 19.2967C1178.95 19.3365 1178.97 19.3757 1179 19.4151C1179.06 19.5308 1179.13 19.6451 1179.2 19.7578C1179.22 19.7846 1179.24 19.8125 1179.26 19.8392C1179.34 19.9702 1179.43 20.0985 1179.52 20.2251C1179.55 20.2624 1179.58 20.2984 1179.61 20.3353C1179.68 20.4288 1179.75 20.5209 1179.83 20.6121C1179.86 20.6493 1179.89 20.6867 1179.92 20.7233C1180.12 20.964 1180.34 21.1958 1180.57 21.4185C1180.6 21.4421 1180.62 21.4653 1180.65 21.4888C1180.75 21.5828 1180.85 21.6751 1180.96 21.7659C1180.98 21.7812 1180.99 21.7967 1181.01 21.812C1181.66 22.3585 1182.39 22.8444 1183.22 23.2656C1184.42 23.8782 1185.72 24.3014 1186.98 24.5952C1186.99 24.5967 1187 24.5985 1187 24.6C1187.41 24.6942 1187.81 24.7748 1188.21 24.8435C1188.3 24.8589 1188.39 24.8747 1188.48 24.889C1188.55 24.9006 1188.62 24.9112 1188.69 24.9222C1188.81 24.9406 1188.93 24.9583 1189.05 24.9746C1189.1 24.981 1189.14 24.9876 1189.19 24.9937C1190.29 25.14 1191.31 25.2017 1192.14 25.221C1192.13 25.2341 1192.13 25.2484 1192.13 25.2616C1192.13 25.2973 1192.12 25.3347 1192.12 25.3713C1192.11 25.466 1192.1 25.5633 1192.08 25.6635C1192.08 25.7079 1192.07 25.7515 1192.07 25.7972C1192.06 25.9299 1192.04 26.0658 1192.03 26.2071C1192.03 26.2274 1192.02 26.2484 1192.02 26.2689C1192.01 26.4011 1192 26.5377 1191.98 26.6771C1191.98 26.7302 1191.97 26.784 1191.97 26.8383C1191.96 26.9537 1191.95 27.0717 1191.94 27.1919C1191.94 27.244 1191.93 27.2949 1191.93 27.3478C1191.92 27.5117 1191.9 27.6796 1191.89 27.8518C1191.89 27.901 1191.89 27.9523 1191.88 28.0023C1191.87 28.1348 1191.87 28.2694 1191.86 28.4066C1191.85 28.4722 1191.85 28.5382 1191.85 28.6047C1191.84 28.7518 1191.83 28.9011 1191.83 29.0528C1191.82 29.0994 1191.82 29.145 1191.82 29.1922C1191.81 29.3832 1191.8 29.5786 1191.8 29.7772C1191.8 29.8431 1191.79 29.9101 1191.79 29.9768C1191.79 30.1251 1191.79 30.2755 1191.78 30.4278C1191.78 30.4985 1191.78 30.569 1191.78 30.6405C1191.78 30.7227 1191.78 30.8062 1191.77 30.8898C1189.71 31.0553 1187.7 30.9332 1185.8 30.5248C1184.88 30.3275 1183.97 30.9123 1183.78 31.8309C1183.58 32.7494 1184.16 33.6533 1185.08 33.8507C1187.25 34.315 1189.51 34.459 1191.83 34.2919C1191.84 34.3242 1191.84 34.3573 1191.84 34.3898C1191.84 34.4725 1191.85 34.555 1191.85 34.6381C1191.86 34.8568 1191.88 35.0776 1191.89 35.3008C1191.89 35.3386 1191.9 35.3755 1191.9 35.4135C1191.91 35.6683 1191.93 35.9266 1191.95 36.1866C1191.96 36.2683 1191.97 36.3506 1191.98 36.4329C1191.99 36.6311 1192.01 36.8305 1192.03 37.0318C1192.04 37.1112 1192.04 37.1903 1192.05 37.2702C1192.08 37.5389 1192.11 37.8098 1192.14 38.0835C1192.14 38.135 1192.15 38.1877 1192.16 38.2395C1192.18 38.469 1192.21 38.6998 1192.24 38.9323C1192.25 39.0198 1192.27 39.1076 1192.28 39.1955C1192.31 39.4236 1192.34 39.6531 1192.37 39.8839C1192.38 39.9448 1192.39 40.0049 1192.4 40.0659C1192.44 40.3517 1192.49 40.6394 1192.54 40.929C1192.55 41.0041 1192.56 41.0799 1192.58 41.1554C1192.61 41.3821 1192.65 41.6096 1192.7 41.8383C1192.71 41.925 1192.73 42.0114 1192.74 42.0986C1192.8 42.3972 1192.86 42.6965 1192.92 42.9983C1194.24 49.363 1196.65 55.135 1200.09 60.1537C1200.35 60.536 1200.62 60.9139 1200.89 61.2875C1200.98 61.4095 1201.08 61.5284 1201.17 61.6492C1201.35 61.8992 1201.54 62.149 1201.73 62.3947C1201.85 62.5376 1201.96 62.6775 1202.08 62.8191C1202.25 63.0386 1202.43 63.2587 1202.61 63.4751C1202.74 63.6247 1202.86 63.7712 1202.99 63.9193C1203.17 64.1233 1203.34 64.3278 1203.52 64.5286C1203.66 64.6798 1203.8 64.8282 1203.93 64.9777C1204.11 65.1708 1204.29 65.3643 1204.47 65.5546C1204.61 65.7054 1204.76 65.8539 1204.9 66.003C1205.09 66.1874 1205.27 66.372 1205.45 66.5535C1205.6 66.7023 1205.75 66.849 1205.91 66.9961C1206.09 67.1737 1206.28 67.3506 1206.47 67.5252C1206.62 67.6712 1206.78 67.8156 1206.94 67.9596C1207.13 68.1307 1207.32 68.3009 1207.52 68.4691C1207.68 68.612 1207.85 68.7532 1208.01 68.894C1208.21 69.0589 1208.4 69.223 1208.6 69.3853C1208.77 69.5241 1208.94 69.6623 1209.12 69.7991C1209.32 69.9589 1209.52 70.1171 1209.72 70.2741C1209.9 70.4087 1210.07 70.5427 1210.25 70.6752C1210.46 70.8301 1210.67 70.9828 1210.88 71.135C1211.06 71.265 1211.24 71.3948 1211.42 71.5227C1211.63 71.6728 1211.85 71.8205 1212.07 71.9679C1212.25 72.0928 1212.44 72.218 1212.62 72.341C1212.84 72.4869 1213.07 72.6302 1213.29 72.7735C1213.48 72.8929 1213.67 73.013 1213.86 73.1307C1214.09 73.273 1214.32 73.4122 1214.55 73.5517C1214.74 73.6649 1214.93 73.7791 1215.12 73.8904C1215.37 74.0302 1215.61 74.1664 1215.86 74.3033C1216.04 74.4094 1216.23 74.5171 1216.43 74.6213C1216.46 74.6417 1216.5 74.6634 1216.54 74.6838C1216.4 75.2459 1216.22 75.7897 1216.01 76.3111C1215.92 76.2775 1215.83 76.2455 1215.75 76.2114C1215.64 76.1713 1215.54 76.1308 1215.44 76.0908C1215.11 75.963 1214.79 75.8325 1214.46 75.6992C1214.34 75.6479 1214.21 75.5965 1214.09 75.5453C1213.79 75.4222 1213.49 75.2975 1213.19 75.1702C1210.53 74.038 1208.33 72.9653 1207.01 72.2896C1205.88 71.7162 1205.23 71.3499 1205.23 71.3488ZM1240.68 90.0372C1234.25 92.5372 1225.3 91.7681 1214.09 87.7506C1209.01 85.9324 1204.64 83.8693 1201.88 82.459C1200.76 81.888 1200.01 81.4818 1199.74 81.3336C1199.73 81.3242 1199.71 81.3148 1199.69 81.306L1199.21 81.0589C1204.17 75.8732 1211.09 78.0293 1211.74 78.2506C1211.81 78.2789 1211.88 78.3056 1211.94 78.334C1211.96 78.3411 1211.98 78.3483 1211.99 78.3554C1212.04 78.3771 1212.1 78.3985 1212.15 78.4204C1212.26 78.468 1212.37 78.5156 1212.49 78.5634C1212.52 78.5755 1212.55 78.5876 1212.58 78.5997C1212.71 78.6567 1212.85 78.7135 1212.99 78.7707C1213.06 78.8005 1213.13 78.8293 1213.2 78.8587C1213.21 78.8606 1213.21 78.8624 1213.22 78.8643C1213.28 78.8911 1213.35 78.918 1213.42 78.9447C1213.52 78.9874 1213.63 79.0299 1213.73 79.0726C1213.83 79.1098 1213.92 79.1471 1214.01 79.1841C1214.11 79.2243 1214.21 79.264 1214.32 79.3039C1214.37 79.3234 1214.41 79.3423 1214.46 79.3618C1214.56 79.4002 1214.66 79.4383 1214.76 79.4767C1214.84 79.5093 1214.93 79.5419 1215.01 79.5746C1215.17 79.6356 1215.33 79.6964 1215.49 79.7572C1215.54 79.7739 1215.58 79.7908 1215.63 79.8074C1215.66 79.8196 1215.69 79.8314 1215.72 79.8434C1215.86 79.8954 1216 79.9474 1216.14 79.9989C1216.21 80.0223 1216.27 80.0455 1216.33 80.0688C1216.53 80.1394 1216.72 80.2095 1216.92 80.2792C1216.92 80.281 1216.93 80.2828 1216.93 80.2844C1217.93 80.6391 1218.98 80.9935 1220.08 81.3301C1225.98 83.1479 1232.99 84.4539 1237.78 82.5915C1237.92 82.5384 1238.06 82.4943 1238.2 82.4569C1238.22 82.4519 1238.24 82.449 1238.26 82.4445C1238.27 82.4407 1238.29 82.438 1238.3 82.4344C1238.41 82.4084 1238.52 82.3842 1238.63 82.3675C1238.65 82.3652 1238.66 82.3641 1238.68 82.3619C1238.69 82.3604 1238.7 82.3598 1238.71 82.3583C1238.84 82.3426 1238.97 82.3305 1239.09 82.3267C1239.1 82.3265 1239.11 82.3264 1239.12 82.3264C1239.12 82.3264 1239.12 82.3265 1239.12 82.3265C1239.27 82.3233 1239.42 82.3271 1239.56 82.3397C1239.56 82.3397 1239.56 82.3398 1239.56 82.3396C1239.64 82.3459 1239.71 82.3521 1239.79 82.3624C1239.85 82.372 1239.92 82.3849 1239.98 82.3979C1240.05 82.4098 1240.11 82.4218 1240.17 82.4368C1240.24 82.455 1240.32 82.476 1240.39 82.4982C1240.44 82.514 1240.49 82.5302 1240.54 82.548C1240.62 82.5749 1240.7 82.6042 1240.77 82.6359C1240.82 82.6554 1240.86 82.6759 1240.91 82.697C1240.99 82.7343 1241.07 82.7728 1241.15 82.8152C1241.17 82.8292 1241.2 82.8439 1241.22 82.8586C1241.31 82.9065 1241.39 82.9569 1241.47 83.0105C1241.5 83.0289 1241.52 83.0478 1241.55 83.0666C1241.62 83.1192 1241.69 83.1746 1241.77 83.2323C1241.79 83.2566 1241.82 83.2814 1241.85 83.3065C1241.92 83.3618 1241.98 83.4199 1242.04 83.4792C1242.07 83.5106 1242.1 83.5423 1242.13 83.5748C1242.19 83.6318 1242.24 83.6914 1242.29 83.7518C1242.32 83.7899 1242.35 83.8275 1242.38 83.8668C1242.43 83.9271 1242.47 83.9901 1242.52 84.0531C1242.55 84.0953 1242.58 84.1365 1242.6 84.1796C1242.65 84.2491 1242.69 84.3219 1242.73 84.3948C1242.75 84.4342 1242.77 84.4726 1242.79 84.5128C1242.85 84.6272 1242.91 84.7452 1242.95 84.8671C1243.75 86.9198 1242.73 89.2393 1240.68 90.0372Z" fill="#01CADE"/>
<defs>
<filter id="filter0_d" x="204" y="29.0001" width="128.425" height="95.6335" filterUnits="userSpaceOnUse" color-interpolation-filters="sRGB">
<feFlood flood-opacity="0" result="BackgroundImageFix"/>
<feColorMatrix in="SourceAlpha" type="matrix" values="0 0 0 0 0 0 0 0 0 0 0 0 0 0 0 0 0 0 127 0"/>
<feOffset dy="4"/>
<feGaussianBlur stdDeviation="2"/>
<feColorMatrix type="matrix" values="0 0 0 0 0.00392157 0 0 0 0 0.870588 0 0 0 0 0.610588 0 0 0 0.1 0"/>
<feBlend mode="normal" in2="BackgroundImageFix" result="effect1_dropShadow"/>
<feBlend mode="normal" in="SourceGraphic" in2="effect1_dropShadow" result="shape"/>
</filter>
<filter id="filter1_d" x="1009.22" y="471.291" width="133.563" height="119.057" filterUnits="userSpaceOnUse" color-interpolation-filters="sRGB">
<feFlood flood-opacity="0" result="BackgroundImageFix"/>
<feColorMatrix in="SourceAlpha" type="matrix" values="0 0 0 0 0 0 0 0 0 0 0 0 0 0 0 0 0 0 127 0"/>
<feOffset dy="4"/>
<feGaussianBlur stdDeviation="2"/>
<feColorMatrix type="matrix" values="0 0 0 0 0.00392157 0 0 0 0 0.792157 0 0 0 0 0.870588 0 0 0 0.2 0"/>
<feBlend mode="normal" in2="BackgroundImageFix" result="effect1_dropShadow"/>
<feBlend mode="normal" in="SourceGraphic" in2="effect1_dropShadow" result="shape"/>
</filter>
</defs>
</svg>
