<?xml version="1.0" encoding="utf-8"?>
<svg width="1920" height="699" viewBox="0 0 1920 699" fill="none" xmlns="http://www.w3.org/2000/svg">
<rect x="887.029" y="188.699" width="13.3186" height="194.452" transform="rotate(-161.364 887.029 188.699)" fill="#F23849"/>
<rect x="885.893" y="632.027" width="5.25279" height="76.6908" transform="rotate(-30 885.893 632.027)" fill="#F23849"/>
<circle r="4.5" transform="matrix(-1 8.74228e-08 8.74228e-08 1 1338.29 182.943)" fill="#F23849"/>
<path d="M1745.74 113.445L1722.9 76.8348L1766.03 75.3566L1745.74 113.445Z" fill="#F23849"/>
<path d="M1843.67 400.278L1819.43 426.23L1809.07 392.268L1843.67 400.278Z" stroke="#F23849" stroke-width="6"/>
<circle r="4.5" transform="matrix(0.974224 0.225581 0.225581 -0.974224 1860.07 653.004)" fill="#F23849"/>
<circle cx="167.601" cy="446.482" r="41.8678" transform="rotate(76.2009 167.601 446.482)" stroke="#F23849" stroke-width="3"/>
<path d="M242.729 225.1L208.632 215.193L234.26 190.618L242.729 225.1Z" stroke="#F23849" stroke-width="6"/>
</svg>
