<?xml version="1.0" encoding="utf-8"?>
<svg width="1911" height="973" viewBox="0 0 1911 973" fill="none" xmlns="http://www.w3.org/2000/svg">
<path d="M1530.82 898.297L1529.57 895.539L1489.3 913.803L1490.55 916.561L1530.82 898.297Z" fill="#F23849"/>
<path d="M1808.81 446.021L1806.53 449.344L1758.01 416.039L1760.29 412.716L1808.81 446.021Z" fill="#F23849"/>
<path fill-rule="evenodd" clip-rule="evenodd" d="M1855.96 784.926C1875.33 789.41 1894.66 777.347 1899.14 757.982C1903.63 738.617 1891.56 719.283 1872.2 714.799C1852.83 710.315 1833.5 722.379 1829.02 741.744C1824.53 761.109 1836.6 780.442 1855.96 784.926ZM1855.28 787.849C1876.26 792.707 1897.21 779.638 1902.07 758.658C1906.92 737.679 1893.86 716.734 1872.88 711.876C1851.9 707.019 1830.95 720.088 1826.09 741.067C1821.24 762.046 1834.31 782.991 1855.28 787.849Z" fill="#FCBD56"/>
<path d="M1570.74 342.839L1547.9 306.228L1591.03 304.75L1570.74 342.839Z" fill="#FCBD56"/>
<g filter="url(#filter0_d)">
<path fill-rule="evenodd" clip-rule="evenodd" d="M1643.08 661.469L1674.41 627.921L1629.69 617.567L1643.08 661.469ZM1645.79 649.779L1662.93 631.422L1638.46 625.757L1645.79 649.779Z" fill="#F23849"/>
</g>
<path d="M1689.45 883.412C1690.01 880.991 1688.51 878.574 1686.08 878.013C1683.66 877.453 1681.25 878.961 1680.69 881.382C1680.12 883.803 1681.63 886.221 1684.05 886.781C1686.48 887.342 1688.89 885.834 1689.45 883.412Z" fill="#F23849"/>
<path d="M1237.31 528.531L1236.25 531.365L1277.63 546.923L1278.7 544.089L1237.31 528.531Z" fill="#F23849"/>
<path d="M723.24 660.717L725.961 660.211L733.35 699.943L730.628 700.449L723.24 660.717Z" fill="#F23849"/>
<path fill-rule="evenodd" clip-rule="evenodd" d="M538.222 254.409C530.805 242.523 515.158 238.9 503.272 246.317C491.386 253.733 487.763 269.38 495.179 281.266C502.596 293.152 518.243 296.775 530.129 289.359C542.015 281.942 545.638 266.295 538.222 254.409ZM540.767 252.821C532.473 239.53 514.975 235.478 501.684 243.771C488.392 252.065 484.341 269.563 492.634 282.854C500.928 296.146 518.426 300.197 531.717 291.904C545.009 283.61 549.06 266.113 540.767 252.821Z" fill="#FCBD56"/>
<path d="M807.805 902.175L802.94 923.186L787.177 908.468L807.805 902.175Z" fill="#FCBD56"/>
<g filter="url(#filter1_d)">
<path fill-rule="evenodd" clip-rule="evenodd" d="M990.467 616.611L944.594 618.183L968.892 657.124L990.467 616.611ZM980.286 622.964L955.186 623.824L968.481 645.131L980.286 622.964Z" fill="#F23849"/>
</g>
<path d="M1114.61 426.883C1112.51 428.199 1111.86 430.974 1113.18 433.083C1114.49 435.191 1117.27 435.834 1119.38 434.519C1121.49 433.203 1122.13 430.427 1120.81 428.319C1119.5 426.21 1116.72 425.567 1114.61 426.883Z" fill="#F23849"/>
<path d="M-33.2217 473.669L-31.1256 475.855L0.787454 445.252L-1.30861 443.067L-33.2217 473.669Z" fill="#FCBD56"/>
<path d="M288.635 551.732L286.597 549.606L317.64 519.836L319.679 521.963L288.635 551.732Z" fill="#F23849"/>
<path fill-rule="evenodd" clip-rule="evenodd" d="M123.951 792.225C127.859 808.135 143.925 817.866 159.835 813.958C175.746 810.05 185.476 793.984 181.568 778.074C177.661 762.163 161.595 752.433 145.684 756.341C129.774 760.249 120.044 776.314 123.951 792.225ZM113.269 794.849C118.625 816.659 140.649 829.997 162.459 824.64C184.269 819.284 197.608 797.26 192.251 775.45C186.894 753.64 164.871 740.302 143.06 745.658C121.25 751.015 107.912 773.038 113.269 794.849Z" fill="#FCBD56"/>
<path d="M488.502 484.807L458.975 484.188L473.203 510.069L488.502 484.807Z" fill="#FCBD56"/>
<path fill-rule="evenodd" clip-rule="evenodd" d="M127.805 446.017L171.882 458.824L160.934 414.249L127.805 446.017ZM139.459 443.155L163.576 450.162L157.586 425.772L139.459 443.155Z" fill="#FCBD56"/>
<defs>
<filter id="filter0_d" x="1614.72" y="615.567" width="65.6831" height="61.0795" filterUnits="userSpaceOnUse" color-interpolation-filters="sRGB">
<feFlood flood-opacity="0" result="BackgroundImageFix"/>
<feColorMatrix in="SourceAlpha" type="matrix" values="0 0 0 0 0 0 0 0 0 0 0 0 0 0 0 0 0 0 127 0"/>
<feOffset dy="4"/>
<feGaussianBlur stdDeviation="3"/>
<feColorMatrix type="matrix" values="0 0 0 0 0.94902 0 0 0 0 0.219608 0 0 0 0 0.286275 0 0 0 0.3 0"/>
<feBlend mode="normal" in2="BackgroundImageFix" result="effect1_dropShadow"/>
<feBlend mode="normal" in="SourceGraphic" in2="effect1_dropShadow" result="shape"/>
</filter>
<filter id="filter1_d" x="938.594" y="595.141" width="70.0213" height="71.9831" filterUnits="userSpaceOnUse" color-interpolation-filters="sRGB">
<feFlood flood-opacity="0" result="BackgroundImageFix"/>
<feColorMatrix in="SourceAlpha" type="matrix" values="0 0 0 0 0 0 0 0 0 0 0 0 0 0 0 0 0 0 127 0"/>
<feOffset dy="4"/>
<feGaussianBlur stdDeviation="3"/>
<feColorMatrix type="matrix" values="0 0 0 0 0.94902 0 0 0 0 0.219608 0 0 0 0 0.286275 0 0 0 0.3 0"/>
<feBlend mode="normal" in2="BackgroundImageFix" result="effect1_dropShadow"/>
<feBlend mode="normal" in="SourceGraphic" in2="effect1_dropShadow" result="shape"/>
</filter>
</defs>
</svg>
