<?xml version="1.0" encoding="utf-8"?>
<svg width="1920" height="797" viewBox="0 0 1920 797" fill="none" xmlns="http://www.w3.org/2000/svg">
<rect x="1114.07" y="569.7" width="13.3186" height="194.452" transform="rotate(23.8316 1114.07 569.7)" fill="#F23849"/>
<rect width="3.02842" height="44.2149" transform="matrix(0.866026 -0.5 -0.5 -0.866026 539.363 563.779)" fill="#F23849"/>
<path d="M676.5 733C676.5 764.204 651.204 789.5 620 789.5C588.796 789.5 563.5 764.204 563.5 733C563.5 701.796 588.796 676.5 620 676.5C651.204 676.5 676.5 701.796 676.5 733Z" stroke="#FCBD56" stroke-width="11"/>
<path d="M537.119 90.913L486.292 40.0861L555.723 21.4821L537.119 90.913Z" fill="#F23849"/>
<path d="M1303.13 255.577L1285.38 286.327L1267.63 255.577L1303.13 255.577Z" stroke="#F23849" stroke-width="6"/>
<circle r="4.5" transform="matrix(1 1.74846e-07 1.74846e-07 -1 654.379 572.827)" fill="#F23849"/>
<path d="M286.85 86.8662L288.101 89.6242L328.367 71.36L327.116 68.602L286.85 86.8662Z" fill="#F23849"/>
<rect x="1.1582" y="534.598" width="5.25279" height="76.6908" transform="rotate(-55.5345 1.1582 534.598)" fill="#F23849"/>
<circle cx="-46.4136" cy="235.3" r="66.5" transform="rotate(-166.963 -46.4136 235.3)" stroke="#F23849" stroke-width="3"/>
<path d="M246.923 642.324L269.767 678.935L226.639 680.413L246.923 642.324Z" fill="#F23849"/>
<path d="M149 355.492L173.233 329.539L183.592 363.501L149 355.492Z" stroke="#FCBD56" stroke-width="6"/>
<circle r="4.5" transform="matrix(-0.974224 -0.225582 -0.225582 0.974224 132.597 102.766)" fill="#F23849"/>
<rect x="1730.39" y="350.943" width="5.25279" height="76.6908" transform="rotate(46.2009 1730.39 350.943)" fill="#F23849"/>
<circle cx="1825.07" cy="179.288" r="75.8984" transform="rotate(-103.799 1825.07 179.288)" stroke="#F23849" stroke-width="11"/>
<path d="M1519.17 430.356L1548.69 430.975L1534.46 405.094L1519.17 430.356Z" fill="#FCBD56"/>
<path d="M1779.94 590.67L1814.03 600.577L1788.41 625.152L1779.94 590.67Z" stroke="#F23849" stroke-width="6"/>
</svg>
