<?xml version="1.0" encoding="utf-8"?>
<svg width="1920" height="718" viewBox="0 0 1920 718" fill="none" xmlns="http://www.w3.org/2000/svg">
<mask id="mask0" mask-type="alpha" maskUnits="userSpaceOnUse" x="0" y="0" width="1920" height="718">
<rect width="1920" height="718" fill="#C4C4C4"/>
</mask>
<g mask="url(#mask0)">
<path d="M575.241 144.586L524.414 93.759L593.845 75.155L575.241 144.586Z" fill="#F23849"/>
<path d="M1341.25 249.25L1323.5 280L1305.75 249.25L1341.25 249.25Z" stroke="#F23849" stroke-width="6"/>
<circle cx="71.7076" cy="228.974" r="66.5" transform="rotate(-166.963 71.7076 228.974)" stroke="#F23849" stroke-width="3"/>
<path d="M187.122 539.165L211.354 513.212L221.714 547.175L187.122 539.165Z" stroke="#F23849" stroke-width="6"/>
<circle cx="1823.19" cy="172.961" r="75.8984" transform="rotate(-103.799 1823.19 172.961)" stroke="#F23849" stroke-width="11"/>
<path d="M1557.29 424.029L1586.81 424.648L1572.59 398.767L1557.29 424.029Z" fill="#F23849"/>
<path d="M1878.06 454.343L1912.16 464.25L1886.53 488.825L1878.06 454.343Z" stroke="#F23849" stroke-width="6"/>
</g>
</svg>
