<?xml version="1.0" encoding="utf-8"?>
<svg width="1920" height="716" viewBox="0 0 1920 716" fill="none" xmlns="http://www.w3.org/2000/svg">
<mask id="mask0" mask-type="alpha" maskUnits="userSpaceOnUse" x="0" y="0" width="1920" height="716">
<rect width="1920" height="716" fill="#C4C4C4"/>
</mask>
<g mask="url(#mask0)">
<circle cx="1057" cy="177" r="54.5" stroke="#F23849" stroke-width="11"/>
<rect x="1144.9" y="107.416" width="5.25279" height="76.6908" transform="rotate(150 1144.9 107.416)" fill="#F23849"/>
<rect x="394" y="291" width="4" height="46" transform="rotate(-180 394 291)" fill="#F23849"/>
<path d="M1474.51 554.87L1475.92 562.4L1468.7 559.856L1474.51 554.87Z" fill="#F23849"/>
<path d="M1431.25 439.25L1413.5 470L1395.75 439.25L1431.25 439.25Z" stroke="#F23849" stroke-width="6"/>
<rect x="39.2791" y="518.272" width="5.25279" height="76.6908" transform="rotate(-55.5345 39.2791 518.272)" fill="#F23849"/>
<circle r="4.5" transform="matrix(-0.974224 -0.225582 -0.225582 0.974224 170.719 86.439)" fill="#F23849"/>
<rect x="1497.35" y="233" width="5.25279" height="76.6908" transform="rotate(46.2009 1497.35 233)" fill="#F23849"/>
</g>
</svg>
