<?xml version="1.0" encoding="utf-8"?>
<svg width="1920" height="716" viewBox="0 0 1920 716" fill="none" xmlns="http://www.w3.org/2000/svg">
<mask id="mask0" mask-type="alpha" maskUnits="userSpaceOnUse" x="0" y="0" width="1920" height="716">
<rect width="1920" height="716" fill="#C4C4C4"/>
</mask>
<g mask="url(#mask0)">
<rect x="1053.76" y="550.744" width="13.3186" height="194.452" transform="rotate(18.6359 1053.76 550.744)" fill="#FCBD56"/>
<g filter="url(#filter0_d)">
<path d="M575.24 134.586L524.413 83.759L593.844 65.1551L575.24 134.586Z" fill="#FCBD56"/>
</g>
<circle cx="91.7075" cy="218.974" r="66.5" transform="rotate(-166.963 91.7075 218.974)" stroke="#FCBD56" stroke-width="3"/>
<path d="M285.044 625.997L307.888 662.608L264.761 664.086L285.044 625.997Z" fill="#FCBD56"/>
<circle cx="1763.19" cy="162.961" r="75.8984" transform="rotate(-103.799 1763.19 162.961)" stroke="#FCBD56" stroke-width="11"/>
<path d="M1858.06 444.343L1892.16 454.25L1866.53 478.826L1858.06 444.343Z" stroke="#FCBD56" stroke-width="6"/>
<circle r="2.5" transform="matrix(1 0 0 -1 1344.5 57.5)" fill="#DADADA"/>
<circle r="2.5" transform="matrix(1 0 0 -1 1354.5 57.5)" fill="#DADADA"/>
<circle r="2.5" transform="matrix(1 0 0 -1 1364.5 57.5)" fill="#DADADA"/>
<circle r="2.5" transform="matrix(1 0 0 -1 1374.5 57.5)" fill="#DADADA"/>
<circle r="2.5" transform="matrix(1 0 0 -1 1384.5 57.5)" fill="#DADADA"/>
<circle r="2.5" transform="matrix(1 0 0 -1 1394.5 57.5)" fill="#DADADA"/>
<circle r="2.5" transform="matrix(1 0 0 -1 1344.5 67.5)" fill="#DADADA"/>
<circle r="2.5" transform="matrix(1 0 0 -1 1354.5 67.5)" fill="#DADADA"/>
<circle r="2.5" transform="matrix(1 0 0 -1 1364.5 67.5)" fill="#DADADA"/>
<circle r="2.5" transform="matrix(1 0 0 -1 1374.5 67.5)" fill="#DADADA"/>
<circle r="2.5" transform="matrix(1 0 0 -1 1384.5 67.5)" fill="#DADADA"/>
<circle r="2.5" transform="matrix(1 0 0 -1 1394.5 67.5)" fill="#DADADA"/>
<circle r="2.5" transform="matrix(1 0 0 -1 1344.5 77.5)" fill="#DADADA"/>
<circle r="2.5" transform="matrix(1 0 0 -1 1354.5 77.5)" fill="#DADADA"/>
<circle r="2.5" transform="matrix(1 0 0 -1 1364.5 77.5)" fill="#DADADA"/>
<circle r="2.5" transform="matrix(1 0 0 -1 1374.5 77.5)" fill="#DADADA"/>
<circle r="2.5" transform="matrix(1 0 0 -1 1384.5 77.5)" fill="#DADADA"/>
<circle r="2.5" transform="matrix(1 0 0 -1 1394.5 77.5)" fill="#DADADA"/>
<circle r="2.5" transform="matrix(1 0 0 -1 1344.5 87.5)" fill="#DADADA"/>
<circle r="2.5" transform="matrix(1 0 0 -1 1354.5 87.5)" fill="#DADADA"/>
<circle r="2.5" transform="matrix(1 0 0 -1 1364.5 87.5)" fill="#DADADA"/>
<circle r="2.5" transform="matrix(1 0 0 -1 1374.5 87.5)" fill="#DADADA"/>
<circle r="2.5" transform="matrix(1 0 0 -1 1384.5 87.5)" fill="#DADADA"/>
<circle r="2.5" transform="matrix(1 0 0 -1 1394.5 87.5)" fill="#DADADA"/>
<circle r="2.5" transform="matrix(1 0 0 -1 1344.5 97.5)" fill="#DADADA"/>
<circle r="2.5" transform="matrix(1 0 0 -1 1354.5 97.5)" fill="#DADADA"/>
<circle r="2.5" transform="matrix(1 0 0 -1 1364.5 97.5)" fill="#DADADA"/>
<circle r="2.5" transform="matrix(1 0 0 -1 1374.5 97.5)" fill="#DADADA"/>
<circle r="2.5" transform="matrix(1 0 0 -1 1384.5 97.5)" fill="#DADADA"/>
<circle r="2.5" transform="matrix(1 0 0 -1 1394.5 97.5)" fill="#DADADA"/>
<circle r="2.5" transform="matrix(1 0 0 -1 1344.5 107.5)" fill="#DADADA"/>
<circle r="2.5" transform="matrix(1 0 0 -1 1354.5 107.5)" fill="#DADADA"/>
<circle r="2.5" transform="matrix(1 0 0 -1 1364.5 107.5)" fill="#DADADA"/>
<circle r="2.5" transform="matrix(1 0 0 -1 1374.5 107.5)" fill="#DADADA"/>
<circle r="2.5" transform="matrix(1 0 0 -1 1384.5 107.5)" fill="#DADADA"/>
<circle r="2.5" transform="matrix(1 0 0 -1 1394.5 107.5)" fill="#DADADA"/>
</g>
<defs>
<filter id="filter0_d" x="518.414" y="63.1551" width="97.5423" height="90.7328" filterUnits="userSpaceOnUse" color-interpolation-filters="sRGB">
<feFlood flood-opacity="0" result="BackgroundImageFix"/>
<feColorMatrix in="SourceAlpha" type="matrix" values="0 0 0 0 0 0 0 0 0 0 0 0 0 0 0 0 0 0 127 0"/>
<feOffset dy="4"/>
<feGaussianBlur stdDeviation="3"/>
<feColorMatrix type="matrix" values="0 0 0 0 0.988235 0 0 0 0 0.741176 0 0 0 0 0.337255 0 0 0 0.3 0"/>
<feBlend mode="normal" in2="BackgroundImageFix" result="effect1_dropShadow"/>
<feBlend mode="normal" in="SourceGraphic" in2="effect1_dropShadow" result="shape"/>
</filter>
</defs>
</svg>
