<?xml version="1.0" encoding="utf-8"?>
<svg width="1920" height="902" viewBox="0 0 1920 902" fill="none" xmlns="http://www.w3.org/2000/svg">
<mask id="mask0" mask-type="alpha" maskUnits="userSpaceOnUse" x="0" y="0" width="1920" height="902">
<rect width="1920" height="902" fill="#C4C4C4"/>
</mask>
<g mask="url(#mask0)">
<path d="M1890 344C1890 365.61 1873.14 383 1852.5 383C1831.86 383 1815 365.61 1815 344C1815 322.39 1831.86 305 1852.5 305C1873.14 305 1890 322.39 1890 344Z" stroke="#FCBD56" stroke-width="4"/>
<path d="M1862.45 860.583L1841.44 839.571L1870.14 831.881L1862.45 860.583Z" fill="#F23849"/>
<path d="M1739.66 86L1731 101L1722.34 86L1739.66 86Z" stroke="#F23849" stroke-width="3"/>
<circle cx="167.278" cy="484.701" r="37.9145" transform="rotate(-166.963 167.278 484.701)" stroke="#F23849" stroke-width="3"/>
<circle r="13.7657" transform="matrix(-0.974224 -0.225582 -0.225582 0.974224 1771.31 596.316)" stroke="#F23849" stroke-width="3"/>
<circle r="4.5" transform="matrix(-0.974224 -0.225582 -0.225582 0.974224 110.598 80.7656)" fill="#F23849"/>
<path d="M64.8656 770.26L98.9626 780.166L73.3347 804.742L64.8656 770.26Z" stroke="#FCBD56" stroke-width="6"/>
</g>
</svg>
